<svg width="328" height="154" viewBox="0 0 328 154" fill="none" xmlns="http://www.w3.org/2000/svg">
<path d="M322.318 100.691C318.805 99.4447 315.25 98.3149 311.662 97.3105C309.867 96.8103 308.063 96.3437 306.245 95.9384C304.428 95.5313 302.598 95.1797 300.753 94.9541C299.831 94.8481 298.905 94.7528 297.979 94.7444C297.052 94.7208 296.138 94.823 295.204 94.9162C293.344 95.0864 291.473 95.1721 289.602 95.1152C288.667 95.0942 287.733 95.0257 286.801 94.935C285.871 94.8309 284.942 94.7016 284.023 94.5214C283.103 94.3403 282.192 94.1207 281.291 93.8616C280.841 93.7314 280.394 93.5904 279.95 93.4429C279.509 93.3139 279.073 93.1815 278.618 93.1036L278.28 93.0352C278.167 93.0152 278.052 93.0023 277.938 92.9853L277.252 92.8908C276.791 92.8561 276.333 92.7951 275.869 92.7841L275.176 92.7527L274.481 92.7459C274.018 92.7358 273.554 92.754 273.091 92.767C271.239 92.8309 269.388 93.0271 267.569 93.3755C267.115 93.4658 266.659 93.5506 266.211 93.6664L265.538 93.8312L264.872 94.0235C264.424 94.1407 263.997 94.314 263.559 94.4586C263.131 94.6349 262.714 94.8028 262.283 94.9978C260.572 95.7682 258.799 96.3864 257.007 96.9209C256.112 97.1897 255.21 97.4368 254.312 97.682C253.863 97.8058 253.413 97.9266 252.97 98.0594C252.531 98.1944 252.082 98.3248 251.69 98.5171C250.822 98.9196 249.956 99.242 249.087 99.586L246.482 100.602C244.753 101.289 243.016 101.971 241.35 102.774C240.934 102.973 240.537 103.193 240.117 103.418C239.698 103.635 239.273 103.842 238.834 104.023C238.395 104.206 237.94 104.357 237.486 104.484C237.031 104.61 236.585 104.721 236.153 104.866C235.283 105.144 234.477 105.576 233.667 106.031C232.86 106.486 232.069 106.974 231.287 107.474C230.897 107.725 230.509 107.979 230.126 108.24C229.936 108.371 229.744 108.503 229.563 108.638C229.512 108.674 229.492 108.697 229.398 108.753C229.357 108.78 229.32 108.792 229.284 108.805C229.247 108.819 229.209 108.832 229.176 108.838C229.035 108.873 228.91 108.878 228.783 108.885C228.285 108.894 227.818 108.83 227.351 108.762C226.885 108.691 226.424 108.606 225.965 108.517C224.127 108.159 222.323 107.729 220.479 107.51L219.098 107.315C218.984 107.3 218.863 107.279 218.756 107.269L218.408 107.235L217.712 107.166L214.929 106.873C211.222 106.465 207.519 106.011 203.827 105.46C201.982 105.182 200.139 104.881 198.306 104.516C197.39 104.331 196.476 104.132 195.569 103.895C195.116 103.775 194.664 103.647 194.216 103.498C193.77 103.346 193.323 103.188 192.896 102.95C192.686 102.831 192.462 102.693 192.298 102.471C192.152 102.272 192.02 102.062 191.922 101.839C191.716 101.398 191.589 100.931 191.502 100.464C191.334 99.5259 191.312 98.5798 191.334 97.6424C191.388 95.7656 191.636 93.9118 191.846 92.0618C191.956 91.1349 192.04 90.2162 192.101 89.2834C192.171 88.3523 192.257 87.4231 192.35 86.495C192.534 84.6392 192.77 82.7868 192.942 80.9363L192.968 80.5901C192.976 80.4714 192.976 80.3691 192.99 80.2371C193.023 79.977 193.124 79.7566 193.23 79.5425C193.448 79.1176 193.717 78.7308 193.995 78.3528C194.556 77.6013 195.17 76.8948 195.807 76.2117C196.449 75.5325 197.104 74.8656 197.829 74.267C198.011 74.1158 198.212 73.9895 198.403 73.859L198.984 73.4695L200.142 72.6877C200.912 72.1631 201.676 71.6303 202.422 71.0727C202.793 70.7921 203.161 70.5065 203.511 70.2011C203.684 70.0492 203.856 69.8859 204.047 69.7489C204.142 69.6798 204.237 69.6106 204.34 69.5537C204.439 69.4909 204.542 69.4345 204.649 69.3857C205.485 68.9754 206.499 68.8517 207.375 69.2104C207.588 69.3068 207.793 69.4248 207.966 69.584C208.14 69.7398 208.302 69.9082 208.455 70.0844C208.756 70.4375 209.041 70.8214 209.185 71.2667C209.036 70.8232 208.748 70.443 208.444 70.0938C208.135 69.7488 207.798 69.4099 207.363 69.2368C206.495 68.8914 205.495 69.0239 204.674 69.4368C204.569 69.4859 204.469 69.5427 204.371 69.6054C204.27 69.6625 204.178 69.7315 204.085 69.8005C203.899 69.9373 203.733 70.0979 203.558 70.2544C203.209 70.5655 202.843 70.8557 202.474 71.141C201.732 71.7074 200.972 72.249 200.207 72.7817L199.056 73.5759L198.48 73.9712C198.287 74.1055 198.094 74.2298 197.919 74.3778C197.212 74.9741 196.564 75.6468 195.933 76.3281C195.306 77.0139 194.703 77.7233 194.156 78.4711C193.886 78.8462 193.625 79.2313 193.422 79.6384C193.323 79.8404 193.233 80.0545 193.211 80.2588C193.199 80.3582 193.2 80.4897 193.193 80.6035L193.17 80.9547C193.012 82.8175 192.784 84.6653 192.612 86.5205C192.524 87.4477 192.444 88.3752 192.379 89.3034C192.325 90.231 192.243 91.1694 192.139 92.0942C191.94 93.9482 191.704 95.7978 191.662 97.6502C191.644 98.5744 191.673 99.5025 191.84 100.4C191.925 100.848 192.049 101.287 192.24 101.689C192.331 101.893 192.45 102.079 192.58 102.255C192.694 102.412 192.876 102.528 193.07 102.636C193.459 102.85 193.897 103.004 194.332 103.149C194.769 103.292 195.215 103.416 195.663 103.532C196.561 103.76 197.47 103.953 198.383 104.133C200.207 104.489 202.045 104.787 203.887 105.061C207.571 105.604 211.271 106.05 214.976 106.45L217.755 106.738L218.45 106.806L218.797 106.839C218.923 106.85 219.031 106.87 219.149 106.885L220.536 107.078C222.398 107.295 224.229 107.728 226.05 108.079C226.506 108.166 226.962 108.249 227.417 108.317C227.871 108.384 228.333 108.443 228.768 108.433C228.873 108.428 228.982 108.422 229.067 108.399C229.165 108.371 229.17 108.368 229.291 108.276C229.484 108.131 229.676 107.999 229.869 107.865C230.256 107.6 230.647 107.344 231.04 107.089C231.827 106.584 232.623 106.091 233.439 105.629C233.846 105.396 234.26 105.173 234.685 104.964C235.109 104.753 235.555 104.57 236.006 104.423C236.458 104.273 236.919 104.159 237.361 104.037C237.805 103.914 238.236 103.771 238.658 103.597C239.081 103.423 239.495 103.223 239.904 103.012C240.307 102.797 240.726 102.566 241.15 102.364C242.846 101.551 244.584 100.873 246.32 100.187L248.927 99.1761C249.791 98.8366 250.674 98.5072 251.497 98.1269C251.945 97.9102 252.398 97.7832 252.848 97.645C253.298 97.5108 253.749 97.3908 254.199 97.2677C255.098 97.024 255.995 96.7798 256.886 96.5142C258.667 95.9867 260.423 95.3776 262.114 94.6203C262.532 94.4322 262.98 94.2508 263.414 94.0738C263.861 93.9266 264.3 93.7503 264.756 93.6321L265.433 93.4375C265.66 93.3785 265.889 93.3272 266.117 93.2717C266.573 93.1549 267.034 93.0698 267.494 92.9793C269.337 92.6315 271.205 92.4329 273.079 92.3775C273.547 92.3668 274.015 92.3516 274.484 92.3643L275.187 92.3753L275.89 92.4112C276.359 92.425 276.826 92.4895 277.294 92.5275L277.993 92.6279C278.109 92.6458 278.226 92.6598 278.342 92.6809L278.689 92.7531C279.153 92.8353 279.61 92.9757 280.062 93.112C280.501 93.2603 280.943 93.402 281.387 93.5335C282.277 93.7953 283.177 94.0174 284.086 94.2019C284.995 94.3852 285.913 94.5186 286.834 94.6269C287.757 94.7219 288.683 94.7955 289.611 94.8216C291.467 94.8886 293.328 94.8142 295.181 94.6552C296.101 94.5687 297.045 94.469 297.984 94.4985C298.922 94.5138 299.854 94.6114 300.781 94.7285C302.635 94.9745 304.467 95.346 306.283 95.7723C308.1 96.1969 309.902 96.6824 311.693 97.201C315.274 98.2427 318.818 99.409 322.318 100.691Z" fill="url(#paint0_linear)"/>
<path d="M219.011 74.647C219.452 73.9011 219.733 73.0536 219.777 72.1928C219.829 71.3303 219.554 70.4669 219.029 69.7917C218.756 69.4604 218.47 69.1355 218.128 68.8805C217.788 68.6272 217.399 68.4398 216.985 68.3782C216.571 68.3133 216.145 68.3714 215.74 68.4919C215.333 68.6138 214.94 68.7876 214.558 68.9852C214.173 69.1818 213.805 69.3983 213.416 69.6067C213.03 69.8145 212.635 70.001 212.238 70.1828C211.443 70.5417 210.635 70.868 209.823 71.181C208.202 71.8088 206.545 72.3662 204.922 72.9484C204.126 73.2578 203.358 73.6489 202.711 74.1852C202.066 74.7155 201.562 75.4163 201.377 76.2198C201.158 77.0901 200.814 77.8955 200.477 78.6986C200.138 79.5001 199.782 80.2919 199.488 81.0963C199.343 81.4997 199.213 81.901 199.157 82.3092C199.092 82.7441 199.015 83.1736 198.933 83.6021C198.769 84.4591 198.586 85.3111 198.381 86.1593C198.173 87.0071 197.952 87.852 197.664 88.6867C197.512 89.1112 197.353 89.4979 197.218 89.9075C197.079 90.3131 196.962 90.7258 196.852 91.1398C196.643 91.9688 196.48 92.8131 196.44 93.6602C196.403 94.5017 196.46 95.3632 196.781 96.1206C196.855 96.3211 196.942 96.4711 197.07 96.6274C197.129 96.7059 197.207 96.7753 197.273 96.8501C197.346 96.9212 197.426 96.9886 197.501 97.0582C197.82 97.326 198.176 97.5602 198.542 97.7795C199.274 98.2182 200.056 98.5871 200.844 98.9367C202.426 99.6283 204.058 100.218 205.698 100.777C206.519 101.056 207.344 101.323 208.17 101.592C208.998 101.867 209.814 102.133 210.651 102.361C212.32 102.825 214.007 103.244 215.688 103.681C217.369 104.123 219.055 104.55 220.71 105.105C220.917 105.173 221.121 105.256 221.326 105.331C221.53 105.41 221.733 105.504 221.931 105.594C222.32 105.784 222.713 105.965 223.109 106.143C223.901 106.494 224.703 106.826 225.513 107.136C225.918 107.29 226.325 107.441 226.735 107.581C227.146 107.717 227.558 107.863 227.979 107.944C228.402 108.015 228.84 107.992 229.269 107.946C229.7 107.898 230.128 107.82 230.55 107.718C230.131 107.831 229.705 107.921 229.274 107.981C228.843 108.039 228.404 108.075 227.967 108.014C227.533 107.94 227.12 107.802 226.705 107.674C226.29 107.541 225.879 107.399 225.47 107.252C224.651 106.958 223.841 106.641 223.038 106.305C222.638 106.135 222.239 105.96 221.843 105.777C221.645 105.692 221.451 105.607 221.249 105.532C221.045 105.462 220.844 105.386 220.637 105.322C218.99 104.795 217.3 104.387 215.616 103.967C213.93 103.55 212.239 103.154 210.556 102.708C209.714 102.49 208.874 102.228 208.05 101.965C207.222 101.703 206.394 101.436 205.569 101.159C203.92 100.606 202.278 100.019 200.674 99.3264C199.873 98.9752 199.079 98.6047 198.319 98.1538C197.939 97.9277 197.565 97.6856 197.217 97.3954C197.133 97.3189 197.046 97.2453 196.963 97.1659C196.885 97.0795 196.799 97.0032 196.727 96.9081C196.576 96.7314 196.444 96.5003 196.369 96.293C196.008 95.442 195.95 94.5225 195.983 93.6381C196.022 92.7485 196.187 91.877 196.401 91.0232C196.515 90.598 196.636 90.175 196.781 89.7593C196.919 89.3444 197.092 88.9273 197.234 88.5351C197.516 87.7285 197.739 86.8919 197.948 86.0536C198.155 85.2142 198.34 84.3682 198.506 83.5199C198.589 83.0957 198.667 82.6701 198.731 82.2463C198.797 81.7928 198.94 81.3639 199.09 80.9517C199.395 80.1247 199.756 79.3329 200.096 78.5362C200.434 77.7408 200.776 76.9416 200.985 76.1261C201.196 75.2262 201.765 74.4439 202.464 73.8847C203.164 73.318 203.971 72.9231 204.795 72.6138C206.448 72.0437 208.092 71.5132 209.719 70.9061C210.531 70.6043 211.339 70.2894 212.132 69.9437C212.526 69.7685 212.92 69.5886 213.301 69.3892C213.68 69.1933 214.063 68.971 214.456 68.7814C214.849 68.5884 215.257 68.4169 215.685 68.2982C216.111 68.1806 216.568 68.1261 217.013 68.2052C217.459 68.2804 217.87 68.4907 218.219 68.7622C218.57 69.0356 218.855 69.3739 219.126 69.7167C219.655 70.4248 219.919 71.3219 219.847 72.1968C219.778 73.0704 219.472 73.9126 219.011 74.647Z" fill="url(#paint1_linear)"/>
<path d="M231.791 104.586C230.603 105.051 229.29 105.173 228.027 104.972C226.763 104.766 225.557 104.277 224.455 103.63L224.046 103.378L223.648 103.11C223.379 102.941 223.123 102.763 222.833 102.635C222.555 102.487 222.256 102.384 221.963 102.265C221.662 102.168 221.365 102.06 221.058 101.981C219.839 101.634 218.585 101.421 217.332 101.203C216.704 101.095 216.076 100.993 215.448 100.875C214.821 100.756 214.188 100.629 213.574 100.421C212.371 100.027 211.141 99.6864 209.92 99.3235C208.698 98.9609 207.475 98.6029 206.265 98.1827C205.962 98.0798 205.662 97.9656 205.361 97.8491C205.062 97.7213 204.766 97.6084 204.468 97.4115C204.165 97.2113 203.966 96.918 203.801 96.6271C203.636 96.3322 203.53 96.0171 203.434 95.7019C203.087 94.4278 203.115 93.1079 203.273 91.8308C203.351 91.1876 203.493 90.5595 203.609 89.9381C203.728 89.3143 203.844 88.6899 203.93 88.0669C204.017 87.4432 204.045 86.826 204.022 86.1956L203.982 85.2432C203.972 84.915 203.978 84.5881 204.005 84.2646C204.052 83.6161 204.157 82.9782 204.292 82.3478C204.427 81.7174 204.592 81.0947 204.798 80.4813C204.85 80.3275 204.904 80.1749 204.963 80.0225C204.994 79.9464 205.021 79.8703 205.056 79.7941C205.088 79.7186 205.117 79.6438 205.175 79.5574C205.383 79.2285 205.661 79.0241 205.936 78.8387C206.494 78.4748 207.087 78.2137 207.683 77.9673C208.878 77.4844 210.105 77.1126 211.339 76.7739C211.96 76.604 212.572 76.4597 213.173 76.2687C213.775 76.0828 214.373 75.8794 214.962 75.6509C216.139 75.195 217.302 74.6741 218.407 74.0795L218.505 74.0268L218.595 74.0649C219.265 74.3469 219.846 74.7454 220.341 75.2646C220.823 75.7846 221.198 76.4423 221.308 77.159C221.428 77.8707 221.345 78.5968 221.129 79.2676C220.905 79.9372 220.562 80.5536 220.159 81.1179C219.756 81.6833 219.289 82.1959 218.783 82.6648C218.532 82.9017 218.268 83.1213 217.995 83.3351C217.711 83.546 217.415 83.7339 217.108 83.894C216.497 84.2222 215.86 84.4781 215.216 84.7089C214.57 84.9385 213.921 85.1372 213.253 85.3068L213.397 85.0558C213.523 85.5093 213.609 85.9572 213.663 86.4189C213.716 86.8785 213.732 87.3479 213.665 87.8198C213.638 88.0548 213.569 88.2929 213.486 88.5186C213.408 88.72 213.343 88.9254 213.298 89.1343C213.256 89.3433 213.234 89.5553 213.24 89.7647C213.247 89.9675 213.286 90.1934 213.354 90.3496L213.089 90.2869C213.474 90.0335 213.873 89.8715 214.299 89.7583C214.722 89.6491 215.162 89.5934 215.599 89.6186C216.034 89.6458 216.471 89.7132 216.879 89.8679C217.089 89.9267 217.28 90.0331 217.48 90.118C217.674 90.2139 217.856 90.3313 218.044 90.437L217.833 90.4784C218.176 90.031 218.575 89.6618 219.019 89.3379C219.463 89.0172 219.954 88.7582 220.476 88.5868C220.998 88.417 221.55 88.3235 222.099 88.3514C222.237 88.3469 222.373 88.363 222.509 88.3819C222.643 88.3995 222.785 88.4147 222.913 88.4345C223.17 88.4806 223.428 88.4986 223.683 88.4882C224.195 88.4735 224.676 88.2635 225.024 87.8875C225.378 87.5169 225.632 87.0457 225.89 86.581C226.147 86.1137 226.405 85.6404 226.709 85.1948C227.011 84.7471 227.36 84.33 227.75 83.9564L227.726 84.0199C227.676 83.2213 227.65 82.4233 227.653 81.6241C227.655 81.2245 227.667 80.8247 227.694 80.4253C227.724 80.0264 227.766 79.6255 227.881 79.2359C228.127 78.4782 228.345 77.7112 228.562 76.9442L229.197 74.638L228.601 76.9549C228.396 77.7254 228.191 78.4965 227.956 79.2595C227.852 79.6375 227.816 80.0362 227.793 80.4317C227.773 80.8284 227.767 81.2261 227.772 81.6237C227.782 82.4188 227.821 83.2154 227.885 84.0075L227.887 84.0443L227.86 84.071C227.485 84.4419 227.151 84.8541 226.864 85.2973C226.573 85.7391 226.326 86.2091 226.076 86.6818C225.824 87.1512 225.578 87.64 225.196 88.0504C225.005 88.2534 224.775 88.4293 224.516 88.5467C224.257 88.6655 223.975 88.7238 223.697 88.7392C223.418 88.7532 223.141 88.7354 222.872 88.6896C222.736 88.6701 222.611 88.6591 222.481 88.6432C222.352 88.626 222.223 88.6116 222.093 88.6175C221.574 88.5955 221.055 88.6887 220.565 88.8536C219.588 89.1868 218.709 89.8476 218.087 90.6577L218.002 90.7679L217.876 90.699C217.696 90.6009 217.523 90.4907 217.34 90.4023C217.152 90.3252 216.972 90.2256 216.775 90.1734C216.393 90.0318 215.988 89.9753 215.586 89.9528C215.183 89.9331 214.778 89.9885 214.389 90.0928C214.003 90.1962 213.616 90.3641 213.3 90.576L213.118 90.6987L213.035 90.5138C212.92 90.255 212.892 90.0253 212.876 89.7785C212.867 89.5361 212.889 89.2953 212.935 89.0613C212.982 88.8275 213.052 88.6006 213.136 88.3801C213.205 88.1809 213.262 87.9823 213.286 87.7673C213.342 87.3429 213.324 86.9013 213.271 86.4646C213.219 86.0292 213.132 85.5871 213.015 85.1702L212.959 84.9706L213.159 84.9191C213.803 84.7533 214.45 84.5536 215.079 84.3275C215.709 84.0997 216.331 83.8468 216.913 83.5317C217.206 83.3776 217.483 83.1999 217.742 83.0068C218.001 82.8019 218.258 82.5879 218.499 82.3591C218.984 81.9055 219.432 81.4106 219.814 80.8713C220.196 80.3334 220.515 79.7517 220.719 79.1345C220.917 78.5181 220.985 77.8603 220.878 77.2349C220.78 76.6072 220.452 76.0355 220.018 75.5676C219.58 75.1053 219.016 74.7268 218.438 74.4857L218.626 74.4714C217.49 75.0871 216.325 75.6125 215.128 76.0808C214.531 76.3148 213.923 76.5236 213.31 76.715C212.695 76.9094 212.067 77.0547 211.459 77.2195C210.236 77.551 209.02 77.9163 207.851 78.3844C207.271 78.6214 206.692 78.8772 206.181 79.2091C205.929 79.373 205.688 79.5689 205.556 79.78C205.521 79.8245 205.491 79.8977 205.46 79.9682C205.428 80.0373 205.401 80.1105 205.373 80.1822C205.316 80.3263 205.263 80.4734 205.213 80.6216C205.012 81.2151 204.848 81.8245 204.714 82.4389C204.581 83.0534 204.477 83.6748 204.43 84.2969C204.403 84.608 204.397 84.9187 204.405 85.2268L204.442 86.1832C204.465 86.8258 204.432 87.4847 204.341 88.1226C204.251 88.7614 204.132 89.3893 204.01 90.0159C203.891 90.6454 203.75 91.2612 203.672 91.8831C203.511 93.1237 203.494 94.4024 203.805 95.5983C203.892 95.8919 203.988 96.1854 204.133 96.4481C204.276 96.7079 204.449 96.9596 204.68 97.1107C204.912 97.2691 205.213 97.3939 205.497 97.5165C205.789 97.6331 206.083 97.748 206.382 97.8527C207.575 98.2795 208.794 98.6486 210.01 99.022C211.228 99.3964 212.45 99.7469 213.664 100.156C214.257 100.363 214.874 100.494 215.497 100.618C216.119 100.741 216.747 100.848 217.374 100.962C218.628 101.188 219.884 101.431 221.112 101.799C221.42 101.884 221.72 101.999 222.024 102.103C222.319 102.228 222.621 102.338 222.904 102.495C223.196 102.629 223.463 102.821 223.729 102.995L224.119 103.266L224.52 103.522C225.601 104.181 226.786 104.685 228.037 104.91C229.287 105.13 230.595 105.031 231.791 104.586Z" fill="url(#paint2_linear)"/>
<path d="M211.029 70.662C211.231 70.8736 211.487 71.009 211.746 71.1071C212.008 71.2007 212.282 71.2515 212.558 71.2573C213.109 71.2778 213.659 71.1649 214.196 71.0014C214.465 70.919 214.732 70.8266 214.994 70.7188C215.26 70.6194 215.52 70.5038 215.779 70.3846C216.296 70.147 216.811 69.8868 217.306 69.6076L217.26 69.814C217.138 69.5691 217.019 69.3258 216.915 69.0729C216.862 68.9477 216.812 68.8203 216.77 68.6899C216.729 68.561 216.682 68.4255 216.688 68.2876C216.717 68.4201 216.797 68.5312 216.861 68.6477C216.931 68.7625 217.004 68.8752 217.076 68.988C217.224 69.2117 217.372 69.4372 217.524 69.6564L217.602 69.7699L217.477 69.8628C217.001 70.2172 216.499 70.5176 215.974 70.7884C215.446 71.0515 214.897 71.2778 214.32 71.4345C213.746 71.5884 213.13 71.6694 212.525 71.5777C212.224 71.5278 211.926 71.4373 211.664 71.2808C211.403 71.1289 211.168 70.9225 211.029 70.662Z" fill="url(#paint3_linear)"/>
<path d="M200.609 72.5047C200.718 72.7733 200.89 73.0079 201.098 73.1796C201.31 73.3495 201.563 73.4405 201.823 73.4507C202.054 73.4677 202.313 73.3525 202.561 73.2365C202.812 73.1193 203.059 72.9804 203.301 72.8344C203.79 72.5484 204.265 72.2301 204.743 71.9156L206.164 70.9484L206.124 71.1906C205.929 70.865 205.753 70.5335 205.59 70.1915C205.512 70.0197 205.434 69.8469 205.372 69.6667C205.315 69.4895 205.239 69.2982 205.276 69.1083C205.274 69.2034 205.316 69.2875 205.355 69.3703C205.394 69.4533 205.438 69.5343 205.487 69.6132C205.582 69.7718 205.681 69.9281 205.786 70.0809C205.991 70.3893 206.209 70.6925 206.423 70.9915L206.516 71.1204L206.383 71.2333C206.161 71.4234 205.934 71.6014 205.703 71.7777C205.474 71.9557 205.239 72.1267 205 72.2916C204.526 72.6271 204.033 72.9372 203.519 73.2197C203.259 73.356 202.995 73.4874 202.715 73.597C202.574 73.6488 202.43 73.697 202.278 73.732C202.2 73.7476 202.123 73.7643 202.039 73.7692C201.961 73.778 201.858 73.7728 201.786 73.7547C201.474 73.7016 201.174 73.546 200.973 73.3099C200.768 73.0784 200.648 72.7924 200.609 72.5047Z" fill="url(#paint4_linear)"/>
<path d="M214.329 76.1288C214.328 76.378 214.409 76.6277 214.572 76.7619C214.733 76.89 214.974 76.9278 215.174 76.8809C215.625 76.7812 216.088 76.5914 216.543 76.4137C216.772 76.3252 217.001 76.2319 217.228 76.1359C217.458 76.0461 217.687 75.9522 217.915 75.8567C218.374 75.6707 218.836 75.4867 219.297 75.3063L219.237 75.5411C218.985 75.128 218.737 74.7117 218.517 74.2756C218.862 74.6215 219.179 74.9872 219.493 75.3561L219.609 75.4928L219.432 75.591C218.994 75.8355 218.548 76.0596 218.094 76.2691C217.865 76.3709 217.636 76.4715 217.405 76.5682C217.172 76.6611 216.937 76.7499 216.7 76.8352C216.222 76.9967 215.744 77.1522 215.209 77.1998C215.139 77.2022 215.062 77.1942 214.991 77.1901C214.92 77.1777 214.854 77.161 214.786 77.1374C214.652 77.0927 214.524 77.006 214.434 76.8931C214.25 76.6602 214.253 76.3632 214.329 76.1288Z" fill="url(#paint5_linear)"/>
<path d="M213.467 86.302C214.085 86.0718 214.708 85.8593 215.32 85.6211C215.932 85.3905 216.553 85.1591 217.124 84.8784C217.701 84.5551 218.326 84.3096 218.917 84.0384C219.515 83.7728 220.107 83.5004 220.675 83.1896C221.245 82.8867 221.795 82.5452 222.275 82.1331L222.458 81.978L222.659 81.8124C222.79 81.6953 222.94 81.6146 223.08 81.5151C223.224 81.4237 223.373 81.345 223.52 81.2607L223.975 81.044C225.201 80.5051 226.496 80.1891 227.799 79.997C227.167 80.1844 226.539 80.3763 225.927 80.6091C225.313 80.8324 224.708 81.0814 224.132 81.3727L223.709 81.604C223.574 81.69 223.434 81.7681 223.304 81.8578C223.179 81.9539 223.039 82.0342 222.928 82.142L222.754 82.2952L222.566 82.4655C222.056 82.9217 221.482 83.2803 220.897 83.6005C220.306 83.9131 219.702 84.1892 219.092 84.4434C218.478 84.6971 217.872 84.9233 217.281 85.2059C216.658 85.4751 216.026 85.6562 215.39 85.8379C214.751 86.0036 214.115 86.1729 213.467 86.302Z" fill="url(#paint6_linear)"/>
<path d="M213.207 85.1134C212.854 84.9346 212.51 84.7546 212.151 84.6048C211.796 84.4501 211.434 84.3114 211.065 84.1951C210.698 84.0722 210.323 83.9701 209.945 83.88C209.567 83.7927 209.186 83.7108 208.796 83.651C209.19 83.6201 209.588 83.6424 209.98 83.701C210.372 83.7561 210.759 83.8513 211.137 83.9731C211.326 84.0329 211.511 84.1084 211.695 84.1803C211.874 84.2666 212.059 84.3399 212.231 84.4417C212.584 84.6231 212.906 84.8603 213.207 85.1134Z" fill="url(#paint7_linear)"/>
<path d="M208.327 82.405C209.167 82.8084 209.99 83.2419 210.815 83.6729C211.635 84.1124 212.453 84.5559 213.263 85.013L213.148 85.2099C212.541 84.8309 211.97 84.4046 211.418 83.9573C210.865 83.5116 210.328 83.0464 209.816 82.5548C210.381 82.9841 210.947 83.4101 211.517 83.8283C212.091 84.2406 212.669 84.6484 213.267 85.0156L213.152 85.2122C212.335 84.767 211.526 84.3079 210.72 83.8444C209.917 83.373 209.114 82.9038 208.327 82.405Z" fill="url(#paint8_linear)"/>
<path d="M210.298 93.3169C210.461 93.0095 210.652 92.7192 210.847 92.4303C211.048 92.1468 211.26 91.8701 211.485 91.6021C211.712 91.3365 211.959 91.0859 212.23 90.8572C212.502 90.6341 212.8 90.4199 213.165 90.3195L213.248 90.5336C212.688 90.8076 212.11 91.0314 211.503 91.1669C211.201 91.2366 210.89 91.2814 210.577 91.2802C210.269 91.273 209.943 91.2289 209.686 91.0503C209.966 91.1837 210.276 91.1992 210.574 91.1725C210.873 91.1469 211.17 91.0892 211.46 91.0007C212.037 90.8271 212.605 90.5984 213.142 90.3287L213.225 90.5426C212.919 90.6311 212.632 90.8187 212.371 91.0314C212.107 91.2426 211.861 91.4806 211.623 91.7275C211.386 91.9755 211.159 92.2348 210.941 92.5024C210.718 92.7659 210.507 93.0393 210.298 93.3169Z" fill="url(#paint9_linear)"/>
<path d="M217.961 90.5684C218.145 90.6749 218.309 90.8055 218.465 90.9456C218.621 91.0844 218.763 91.2391 218.898 91.4004C219.03 91.5637 219.152 91.7375 219.249 91.9272C219.345 92.1145 219.429 92.3223 219.425 92.5382C219.334 92.3475 219.214 92.1865 219.094 92.0237C218.972 91.8635 218.848 91.7036 218.717 91.5477C218.462 91.2296 218.197 90.9189 217.961 90.5684Z" fill="url(#paint10_linear)"/>
<path d="M225.067 74.9648C225.309 75.8432 225.654 76.6843 226.008 77.5201C226.185 77.9377 226.378 78.3495 226.567 78.7619C226.756 79.1742 226.95 79.5858 227.152 79.9903L226.953 80.0727C226.736 79.4226 226.531 78.7714 226.352 78.1107C226.172 77.4512 226.005 76.7878 225.853 76.1205C225.707 75.4519 225.591 74.7763 225.505 74.0965L225.456 73.585L225.437 73.0709C225.431 72.8996 225.449 72.7278 225.454 72.557C225.463 72.3859 225.508 72.2179 225.534 72.0503C225.44 72.7285 225.528 73.4095 225.632 74.0793C225.741 74.7502 225.889 75.4144 226.048 76.0757C226.207 76.7372 226.381 77.3951 226.569 78.0496C226.762 78.7022 226.95 79.3578 227.158 80.0043L226.958 80.0868C226.562 79.2635 226.192 78.4305 225.866 77.5782C225.704 77.1519 225.54 76.7259 225.408 76.2886C225.274 75.8531 225.146 75.4137 225.067 74.9648Z" fill="url(#paint11_linear)"/>
<path d="M219.531 70.6865C220.559 70.6224 221.584 70.4893 222.586 70.2639C223.086 70.1489 223.583 70.0104 224.054 69.8131C224.522 69.6124 224.969 69.3493 225.423 69.1092C227.232 68.124 229.048 67.1458 230.906 66.2478C232.764 65.3538 234.66 64.5198 236.649 63.9223L237.403 63.7213C237.657 63.6633 237.915 63.6202 238.171 63.5689C238.68 63.4715 239.179 63.3997 239.68 63.2798C240.682 63.0632 241.678 62.8011 242.676 62.5474C244.671 62.0336 246.674 61.5281 248.708 61.1526C250.74 60.7757 252.804 60.5095 254.884 60.5022C255.403 60.4977 255.923 60.5368 256.443 60.5522C256.961 60.5991 257.48 60.6646 257.997 60.7278C258.507 60.8348 259.026 60.9325 259.528 61.0485C260.027 61.1634 260.522 61.2985 261.025 61.3953C262.026 61.6165 263.038 61.7795 264.052 61.9255C265.067 62.0606 266.088 62.159 267.113 62.2433C268.137 62.3328 269.17 62.4059 270.202 62.5693C271.23 62.73 272.27 63.0111 273.209 63.4788C273.652 63.6831 274.144 63.8319 274.633 63.9706C275.123 64.1113 275.622 64.2308 276.121 64.3477C277.12 64.5783 278.128 64.7801 279.138 64.9713C283.181 65.7298 287.26 66.3157 291.334 66.9193C293.373 67.2193 295.411 67.4937 297.453 67.8088C299.48 68.1068 301.538 68.2971 303.584 68.5138C307.681 68.9441 311.784 69.326 315.885 69.7275C311.775 69.4317 307.668 69.0949 303.562 68.742L300.484 68.4521C299.459 68.3457 298.435 68.2499 297.407 68.1001C295.373 67.8082 293.325 67.5539 291.284 67.275C289.242 67.0013 287.201 66.7156 285.163 66.4025C283.125 66.0908 281.089 65.7648 279.06 65.3891C278.045 65.2006 277.032 65.0016 276.023 64.7721C275.519 64.6558 275.015 64.5371 274.514 64.3951C274.012 64.2541 273.513 64.108 273.02 63.8832C271.198 62.9744 269.121 62.8852 267.074 62.7082C266.046 62.6201 265.016 62.5176 263.99 62.3772C262.965 62.2261 261.942 62.0578 260.931 61.8306C260.423 61.7309 259.924 61.593 259.42 61.4749C258.918 61.3578 258.425 61.2641 257.927 61.1569C257.423 61.0941 256.918 61.0283 256.412 60.9807C255.902 60.9643 255.394 60.9239 254.883 60.9266C252.84 60.9266 250.799 61.182 248.781 61.5493C246.763 61.9202 244.763 62.403 242.763 62.8944C241.762 63.1379 240.762 63.3902 239.748 63.5986C239.245 63.7134 238.723 63.7839 238.219 63.875C237.97 63.9224 237.719 63.9614 237.471 64.0154L236.729 64.2051C234.764 64.7721 232.866 65.5857 231.004 66.4534C229.136 67.3175 227.307 68.2632 225.481 69.218C225.021 69.4509 224.574 69.7051 224.091 69.9028C223.608 70.0951 223.106 70.2267 222.601 70.3324C221.588 70.536 220.56 70.6458 219.531 70.6865Z" fill="url(#paint12_linear)"/>
<path d="M226.147 88.3214C226.618 88.3053 227.093 88.3119 227.565 88.3667C227.801 88.3927 228.037 88.4291 228.27 88.4865C228.502 88.5449 228.736 88.6157 228.953 88.7452L228.815 88.8127C228.949 87.67 229.487 86.6318 230.182 85.7384C230.902 84.8587 231.812 84.1437 232.808 83.6057L233.567 83.2254L234.355 82.9128C234.614 82.7971 234.892 82.7397 235.16 82.6534L235.964 82.4191C237.013 82.1293 238.018 81.6824 238.982 81.1582C240.911 80.1047 242.672 78.7505 244.344 77.3046C246.007 75.8456 247.591 74.2868 249.071 72.6295C247.717 74.3934 246.205 76.0388 244.574 77.5598C243.757 78.3202 242.904 79.0435 242.012 79.7184C241.124 80.3983 240.186 81.0175 239.202 81.5608C238.712 81.8357 238.204 82.0805 237.687 82.3055C237.163 82.5147 236.634 82.7189 236.084 82.8585L235.286 83.0858C235.026 83.1676 234.756 83.2236 234.504 83.3296L233.738 83.6178L233.001 83.9704C232.039 84.4753 231.148 85.1253 230.434 85.9474C229.737 86.7709 229.186 87.764 228.993 88.828L228.967 88.9714L228.855 88.8955C228.672 88.7714 228.454 88.6888 228.233 88.6208C228.012 88.5522 227.782 88.5035 227.551 88.4646C227.088 88.3882 226.619 88.3397 226.147 88.3214Z" fill="url(#paint13_linear)"/>
<path d="M191.74 101.365C190.307 101.277 188.888 100.995 187.504 100.607C186.807 100.416 186.138 100.161 185.434 100.045C184.733 99.9203 184.024 99.8276 183.311 99.7887C181.886 99.6872 180.452 99.7188 179.034 99.8594C178.326 99.9356 177.619 100.036 176.93 100.202C176.245 100.366 175.554 100.566 174.965 100.917C174.667 101.093 174.392 101.305 174.158 101.547C173.924 101.789 173.737 102.073 173.651 102.378C173.559 102.683 173.587 103.005 173.712 103.297C173.84 103.588 174.058 103.846 174.317 104.062C174.836 104.497 175.489 104.781 176.154 104.994C176.32 105.05 176.489 105.091 176.661 105.142L177.185 105.294C177.531 105.404 177.877 105.517 178.215 105.646C179.574 106.151 180.872 106.781 182.166 107.403C183.458 108.02 184.745 108.659 186.086 109.094C186.751 109.316 187.441 109.443 188.149 109.555C188.854 109.664 189.564 109.76 190.275 109.854C191.697 110.042 193.124 110.229 194.544 110.482C195.253 110.615 195.962 110.753 196.663 110.942C197.365 111.124 198.063 111.342 198.729 111.661C199.074 111.812 199.366 111.984 199.695 112.122C200.016 112.267 200.345 112.392 200.679 112.496C201.346 112.708 202.04 112.822 202.739 112.817C204.141 112.806 205.519 112.356 206.819 111.787C207.471 111.504 208.113 111.179 208.771 110.884C209.427 110.589 210.087 110.304 210.753 110.033C213.418 108.958 216.115 107.97 218.837 107.06C216.151 108.07 213.471 109.1 210.841 110.244C210.183 110.527 209.529 110.818 208.881 111.123C208.234 111.424 207.599 111.758 206.939 112.057C206.283 112.359 205.606 112.623 204.906 112.825C204.207 113.027 203.481 113.162 202.744 113.176C202.007 113.192 201.267 113.083 200.564 112.871C200.385 112.824 200.215 112.756 200.043 112.694C199.869 112.635 199.703 112.559 199.535 112.487C199.201 112.35 198.87 112.159 198.556 112.025C197.926 111.727 197.246 111.517 196.559 111.343C195.873 111.162 195.171 111.028 194.47 110.901C193.062 110.657 191.641 110.477 190.217 110.297C189.505 110.206 188.792 110.113 188.078 110.006C187.369 109.897 186.641 109.77 185.943 109.538C184.553 109.079 183.263 108.428 181.971 107.803C180.682 107.175 179.396 106.545 178.066 106.043C177.735 105.915 177.398 105.803 177.061 105.695L176.552 105.544C176.38 105.492 176.2 105.448 176.027 105.387C175.332 105.16 174.64 104.861 174.056 104.369C173.766 104.125 173.507 103.823 173.346 103.454C173.189 103.087 173.152 102.652 173.277 102.269C173.392 101.884 173.623 101.556 173.89 101.287C174.158 101.017 174.461 100.794 174.783 100.609C175.439 100.233 176.151 100.044 176.858 99.8843C177.568 99.7243 178.286 99.6338 179.005 99.567C180.445 99.4469 181.891 99.4333 183.328 99.5617C184.047 99.6184 184.762 99.7294 185.469 99.8737C186.183 100.009 186.857 100.285 187.538 100.489C188.223 100.699 188.916 100.882 189.617 101.029C190.318 101.178 191.025 101.303 191.74 101.365Z" fill="url(#paint14_linear)"/>
<path d="M22.96 86.8251C30.5585 86.2787 38.1656 85.863 45.765 85.3531C49.5644 85.1106 53.3543 84.7557 57.1598 84.5059C60.9631 84.2609 64.7764 84.082 68.5965 84.1787C70.5053 84.2375 72.419 84.3642 74.3118 84.7116C74.7849 84.7972 75.255 84.9084 75.7208 85.0401C75.9538 85.1039 76.1838 85.188 76.4134 85.264L77.0845 85.5232C77.9743 85.8807 78.8566 86.2753 79.6771 86.7989C80.0904 87.0533 80.4777 87.3597 80.832 87.6979C81.1883 88.0355 81.486 88.427 81.7967 88.761C82.1057 89.0998 82.4799 89.3331 82.9064 89.5112C83.3412 89.6956 83.7833 89.8595 84.2308 90.0272C84.6758 90.1955 85.1383 90.3751 85.5558 90.6522C85.9755 90.9252 86.3295 91.2775 86.6433 91.6463C86.8047 91.8366 86.9457 92.0021 87.1108 92.17L87.3597 92.4158L87.6216 92.651C87.9726 92.9637 88.3433 93.2579 88.7184 93.5456C90.2312 94.6832 91.8403 95.7058 93.5177 96.5862C93.9384 96.8032 94.3627 97.015 94.797 97.1996L95.4533 97.4862C95.6729 97.5832 95.8869 97.6915 96.1025 97.7962C96.9569 98.2303 97.7759 98.7219 98.5973 99.2002C99.418 99.6785 100.247 100.145 101.133 100.475C101.575 100.635 102.029 100.774 102.496 100.835C102.726 100.876 102.968 100.899 103.203 100.935C103.439 100.973 103.675 101.01 103.909 101.057C104.847 101.233 105.773 101.475 106.676 101.782C107.126 101.939 107.57 102.116 108 102.324C108.422 102.537 108.855 102.771 109.161 103.14C108.847 102.778 108.412 102.556 107.986 102.353C107.554 102.155 107.108 101.989 106.655 101.843C105.75 101.554 104.825 101.328 103.889 101.168C103.655 101.125 103.42 101.093 103.185 101.059C102.949 101.026 102.716 101.008 102.477 100.971C101.997 100.916 101.532 100.781 101.078 100.626C100.171 100.305 99.3248 99.8471 98.4936 99.3814C97.6631 98.9129 96.8441 98.4303 95.9955 98.0106C95.7818 97.9098 95.5696 97.8049 95.3527 97.7118L94.6972 97.4337C94.2533 97.2502 93.8225 97.0405 93.3949 96.8257C91.6914 95.9533 90.0644 94.9428 88.5215 93.8073C88.1383 93.5197 87.7592 93.2254 87.3958 92.9084L87.1243 92.6693L86.8622 92.416C86.6915 92.2469 86.5213 92.0507 86.373 91.8795C86.0675 91.5277 85.7386 91.2018 85.357 90.9563C84.9786 90.7063 84.5457 90.5379 84.1012 90.372C83.6568 90.2071 83.2052 90.0413 82.7625 89.8556C82.3096 89.6717 81.8583 89.3906 81.5234 89.0218C81.1852 88.6598 80.9036 88.2901 80.566 87.9734C80.2313 87.6563 79.8668 87.3687 79.4683 87.1254C78.6803 86.6262 77.8149 86.241 76.9385 85.8928L76.2762 85.6394C76.0538 85.5672 75.8358 85.4876 75.6095 85.4267C75.1587 85.3009 74.7009 85.1939 74.2368 85.1116C72.3802 84.7767 70.4802 84.6575 68.5843 84.6038C64.7878 84.495 60.9819 84.6601 57.1845 84.8919C53.3873 85.1222 49.5914 85.4869 45.7852 85.6786C41.9819 85.8953 38.1779 86.0909 34.3738 86.2817L22.96 86.8251Z" fill="url(#paint15_linear)"/>
<path d="M139.161 88.9757C140.179 89.4062 141.229 89.7645 142.306 90.0109C142.575 90.0745 142.848 90.1131 143.119 90.1733L143.322 90.2172L143.522 90.2759C143.655 90.3135 143.787 90.3548 143.917 90.4035C144.44 90.586 144.948 90.8063 145.451 91.0369C147.462 91.9594 149.395 93.0432 151.442 93.8755C152.467 94.3077 153.424 94.8767 154.351 95.4809C155.279 96.0863 156.171 96.7434 157.047 97.4207C157.484 97.7611 157.917 98.1053 158.344 98.458C158.774 98.8066 159.186 99.1798 159.625 99.5029C160.509 100.152 161.479 100.686 162.492 101.105C162.999 101.313 163.521 101.483 164.052 101.6C164.582 101.714 165.131 101.776 165.657 101.692C165.786 101.666 165.917 101.649 166.045 101.602L166.237 101.541L166.423 101.465C166.671 101.364 166.901 101.226 167.105 101.06C167.509 100.732 167.784 100.232 167.721 99.7149C167.697 99.4601 167.62 99.2061 167.488 98.9774C167.368 98.7426 167.196 98.5352 167.02 98.335C166.644 97.9342 166.254 97.5415 165.866 97.1491C165.088 96.3645 164.306 95.581 163.545 94.7751C163.166 94.3719 162.791 93.9632 162.423 93.5481C162.055 93.1328 161.705 92.6987 161.335 92.3037C160.575 91.5157 159.74 90.7928 158.894 90.0874C157.195 88.6792 155.423 87.3604 153.654 86.0321C152.746 85.3785 151.961 84.5738 151.161 83.8208C150.361 83.0679 149.545 82.3191 148.606 81.7886C148.487 81.7291 148.37 81.662 148.249 81.6084C148.125 81.5596 148.004 81.5072 147.879 81.4607C147.621 81.3762 147.364 81.2897 147.098 81.2198C146.571 81.0699 146.035 80.9432 145.498 80.8169C144.424 80.5678 143.342 80.3375 142.263 80.098C140.105 79.6122 137.936 79.1409 135.833 78.3848C133.746 77.6052 131.759 76.6084 129.806 75.5655L128.347 74.7779C128.107 74.6517 127.853 74.512 127.63 74.4208C127.515 74.3892 127.398 74.3657 127.258 74.3437L126.852 74.2787C125.763 74.1168 124.666 73.9728 123.571 73.8237C121.379 73.5279 119.188 73.2286 117 72.894C114.815 72.5595 112.621 72.1947 110.465 71.6798C108.308 71.1824 106.161 70.6495 104.017 70.1034C101.874 69.5538 99.7357 68.9869 97.6028 68.398C95.4708 67.805 93.3417 67.2038 91.2344 66.5068C90.7064 66.3336 90.1837 66.1484 89.6613 65.932L89.2704 65.7579C89.1423 65.6993 89.0248 65.6385 88.9013 65.579C88.6605 65.4552 88.4033 65.3537 88.155 65.2398C87.1461 64.8074 86.1103 64.4282 85.0683 64.0724C84.0262 63.7151 82.972 63.3926 81.9101 63.1008C80.8499 62.8014 79.7765 62.555 78.6992 62.3347C77.6202 62.1222 76.5319 61.9652 75.4407 61.8811L74.6222 61.8475C74.3495 61.84 74.0787 61.8603 73.8069 61.8649C73.2618 61.8788 72.6969 61.9327 72.1453 61.9367C69.9272 61.9914 67.7145 61.9471 65.502 61.8821C63.29 61.8151 61.0796 61.7125 58.8709 61.5763C56.6625 61.4396 54.4552 61.2769 52.2523 61.0598C50.0498 60.8403 47.848 60.5942 45.6643 60.1944C43.4894 59.7713 41.3273 59.3381 39.1516 58.9365C34.8058 58.1202 30.4557 57.3272 26.1055 56.5332L0.000160455 51.7903L26.1423 56.328C30.4968 57.0988 34.8502 57.8756 39.2005 58.672C41.3751 59.0634 43.5512 59.4892 45.7188 59.9011C47.887 60.2883 50.0857 60.5244 52.2833 60.7335C54.4821 60.9406 56.6866 61.0931 58.8922 61.22C61.0976 61.3494 63.305 61.4511 65.5131 61.514C67.7207 61.5756 69.9311 61.6166 72.1339 61.5588C72.6881 61.5538 73.2254 61.5008 73.7856 61.4853C74.0662 61.4795 74.3477 61.4585 74.6274 61.4658L75.4659 61.4992C76.5793 61.5833 77.6828 61.7412 78.7737 61.9542C79.8625 62.1751 80.9458 62.4223 82.0141 62.7223C83.0844 63.0149 84.1459 63.3379 85.1961 63.6963C86.2466 64.0534 87.2893 64.433 88.3137 64.8701C88.5681 64.9861 88.8258 65.0877 89.0771 65.216C89.203 65.2764 89.3313 65.3422 89.4545 65.3981L89.8216 65.5603C90.3202 65.7659 90.8409 65.9503 91.3633 66.1207C93.4557 66.8095 95.585 67.4077 97.7137 67.9962C99.8442 68.5815 101.981 69.1436 104.122 69.6913C106.263 70.2398 108.407 70.7754 110.558 71.2744C112.705 71.7907 114.877 72.1546 117.061 72.4925C119.244 72.8298 121.434 73.1317 123.624 73.4309C124.719 73.5817 125.815 73.7268 126.912 73.8915L127.325 73.9585C127.457 73.9791 127.613 74.009 127.763 74.0535C128.052 74.1722 128.281 74.3038 128.53 74.4347L129.988 75.2246C131.932 76.2661 133.907 77.2594 135.964 78.0311C138.025 78.7759 140.19 79.252 142.342 79.7391C143.42 79.9799 144.502 80.2117 145.581 80.4634C146.12 80.5916 146.659 80.7195 147.196 80.8732C147.465 80.9443 147.732 81.034 147.999 81.1227C148.133 81.1726 148.265 81.2304 148.398 81.2844C148.529 81.3428 148.653 81.4141 148.78 81.4787C150.756 82.6318 152.089 84.4808 153.851 85.7723C155.612 87.1064 157.384 88.4372 159.084 89.8591C159.932 90.5724 160.769 91.3027 161.541 92.1098C161.924 92.5239 162.266 92.9529 162.63 93.3663C162.993 93.7805 163.364 94.1885 163.741 94.5917C164.494 95.3974 165.271 96.1824 166.046 96.9711C166.434 97.3661 166.821 97.7605 167.2 98.1674C167.387 98.3813 167.57 98.6042 167.702 98.8633C167.844 99.1143 167.933 99.4015 167.959 99.6955C167.977 99.8431 167.959 99.9915 167.942 100.139C167.905 100.284 167.869 100.428 167.799 100.56C167.667 100.824 167.481 101.062 167.252 101.239C167.026 101.421 166.776 101.568 166.512 101.674L166.314 101.755L166.11 101.818C165.978 101.867 165.833 101.886 165.692 101.914C165.122 102.001 164.552 101.931 164.006 101.812C163.459 101.689 162.927 101.513 162.413 101.297C161.386 100.862 160.41 100.315 159.517 99.6483C159.068 99.3125 158.662 98.938 158.236 98.5875C157.814 98.2323 157.384 97.8857 156.952 97.5429C156.084 96.8609 155.199 96.199 154.28 95.5891C153.361 94.9799 152.413 94.4066 151.402 93.9709C149.356 93.12 147.43 92.0206 145.429 91.0839C144.929 90.8497 144.423 90.6261 143.904 90.4403C143.775 90.3905 143.644 90.3484 143.511 90.31L143.314 90.2498L143.112 90.2049C142.844 90.143 142.569 90.1018 142.3 90.0363C141.223 89.7808 140.175 89.4142 139.161 88.9757Z" fill="url(#paint16_linear)"/>
<path d="M164.266 95.5424C163.906 95.9246 163.759 96.4437 163.879 96.9024C163.903 97.0244 163.948 97.1176 164.002 97.2153C164.069 97.3131 164.133 97.411 164.215 97.5057C164.367 97.6988 164.553 97.8735 164.729 98.0548C165.094 98.408 165.478 98.7487 165.869 99.0834C166.257 99.4212 166.654 99.7538 167.046 100.089L166.939 100.068C167.024 100.052 167.125 100.018 167.213 99.9789C167.304 99.9401 167.391 99.891 167.471 99.8314C167.632 99.7135 167.759 99.5455 167.828 99.3406C167.818 99.446 167.806 99.5589 167.757 99.6599C167.712 99.7614 167.654 99.8615 167.575 99.9436C167.498 100.028 167.41 100.102 167.315 100.165C167.217 100.227 167.121 100.278 167.002 100.32L166.954 100.336L166.894 100.299C166.449 100.021 166.026 99.7166 165.612 99.3955C165.203 99.0689 164.804 98.7276 164.436 98.3452C164.251 98.1545 164.077 97.9533 163.919 97.7298C163.88 97.6726 163.838 97.6211 163.803 97.5597L163.702 97.3724C163.643 97.2374 163.596 97.0857 163.585 96.9495C163.554 96.6683 163.602 96.3762 163.726 96.1284C163.85 95.8816 164.039 95.6746 164.266 95.5424Z" fill="url(#paint17_linear)"/>
<path d="M122.342 74.6305C122.74 74.6459 123.135 74.7052 123.53 74.7486L124.715 74.896L127.082 75.2129L129.448 75.5386C130.244 75.6367 131.04 75.9113 131.698 76.3936C132.361 76.8707 132.886 77.5085 133.314 78.1895C133.742 78.8735 134.078 79.6078 134.366 80.3559C134.948 81.8233 135.704 83.2255 136.474 84.6143C138.028 87.387 139.691 90.1019 141.229 92.8986C141.606 93.6034 141.987 94.3051 142.317 95.0392C142.647 95.767 142.977 96.4811 143.337 97.1888C143.696 97.8957 144.073 98.5933 144.455 99.2912C144.835 99.991 145.228 100.685 145.562 101.426C145.722 101.8 145.876 102.185 145.936 102.619C145.977 103.03 146.013 103.435 145.951 103.867C145.895 104.298 145.704 104.701 145.475 105.047C145.245 105.396 144.973 105.705 144.69 105.994C144.124 106.575 143.51 107.093 142.895 107.601C142.279 108.108 141.654 108.605 141.026 109.095C140.398 109.586 139.765 110.067 139.161 110.575C138.86 110.829 138.567 111.091 138.286 111.366C138.007 111.638 137.752 111.936 137.452 112.223C136.261 113.322 134.939 114.217 133.616 115.11C132.952 115.552 132.282 115.984 131.606 116.407L131.352 116.565L131.222 116.644C131.169 116.675 131.114 116.7 131.06 116.718C130.843 116.79 130.634 116.803 130.427 116.81C130.015 116.817 129.614 116.773 129.216 116.717C127.627 116.477 126.086 116.059 124.554 115.616C124.172 115.503 123.791 115.386 123.411 115.266C123.027 115.148 122.659 115.007 122.275 114.917C121.505 114.724 120.726 114.555 119.951 114.371C119.178 114.182 118.399 114.008 117.646 113.732C117.553 113.695 117.46 113.656 117.372 113.605C117.328 113.579 117.283 113.552 117.246 113.51C117.213 113.465 117.189 113.425 117.162 113.381C117.06 113.209 116.976 113.024 116.925 112.83C116.81 112.446 116.881 111.999 117.158 111.705C116.889 112.007 116.834 112.448 116.956 112.821C117.011 113.011 117.098 113.19 117.203 113.356C117.286 113.545 117.488 113.598 117.669 113.672C118.418 113.929 119.201 114.089 119.976 114.261C120.754 114.43 121.534 114.583 122.313 114.761C122.706 114.846 123.086 114.982 123.465 115.089C123.846 115.202 124.228 115.311 124.611 115.416C126.143 115.835 127.688 116.235 129.252 116.451C129.642 116.501 130.035 116.538 130.419 116.527C130.61 116.519 130.802 116.501 130.963 116.444C131.003 116.43 131.039 116.413 131.071 116.394L131.195 116.315L131.446 116.155C132.115 115.726 132.777 115.287 133.433 114.839C134.088 114.39 134.737 113.932 135.371 113.457C136.003 112.981 136.631 112.494 137.198 111.958C137.472 111.693 137.736 111.385 138.025 111.1C138.312 110.817 138.611 110.547 138.917 110.286C139.53 109.767 140.163 109.283 140.787 108.79C141.412 108.299 142.031 107.802 142.641 107.295C143.251 106.787 143.854 106.274 144.397 105.712C144.669 105.432 144.924 105.138 145.131 104.821C145.336 104.505 145.494 104.169 145.539 103.806C145.591 103.449 145.559 103.053 145.518 102.673C145.469 102.316 145.327 101.953 145.173 101.598C144.855 100.886 144.466 100.191 144.09 99.4901C143.71 98.7904 143.333 98.0861 142.974 97.3718C142.615 96.6596 142.28 95.927 141.956 95.2032C141.636 94.4841 141.259 93.784 140.889 93.0835C139.376 90.291 137.701 87.5787 136.186 84.7724C135.431 83.3683 134.688 81.9521 134.114 80.4507C133.839 79.711 133.519 78.9869 133.109 78.3162C132.701 77.6474 132.2 77.0282 131.574 76.5629C130.953 76.0894 130.203 75.8111 129.424 75.6983L127.066 75.3251L124.706 74.9599L123.526 74.7807C123.132 74.7266 122.739 74.6565 122.342 74.6305Z" fill="url(#paint18_linear)"/>
<path d="M122.447 76.2736C123.728 76.6547 125.007 77.0453 126.281 77.4505C127.555 77.8578 128.829 78.2572 130.088 78.7254C130.4 78.8433 130.724 78.9878 130.999 79.2022C131.278 79.4117 131.507 79.6757 131.709 79.9522C132.11 80.5117 132.377 81.1456 132.588 81.7877C132.797 82.4318 132.946 83.0916 133.061 83.7547C133.172 84.4226 133.257 85.0776 133.381 85.732C133.624 87.0401 133.929 88.3389 134.261 89.6293C134.596 90.9189 134.967 92.2009 135.394 93.4595C135.847 94.7387 136.089 96.0683 136.336 97.3828C136.575 98.7018 136.777 100.025 136.967 101.35C137.149 102.676 137.312 104.006 137.447 105.339C137.511 106.008 137.561 106.688 137.502 107.377C137.449 108.063 137.258 108.762 136.859 109.356C136.652 109.67 136.357 109.892 136.058 110.075C135.758 110.262 135.434 110.388 135.112 110.506C134.46 110.725 133.791 110.857 133.121 110.947C132.45 111.036 131.776 111.078 131.102 111.09C130.438 111.088 129.788 111.154 129.136 111.27C127.833 111.502 126.568 111.927 125.28 112.302C124.621 112.484 123.954 112.579 123.285 112.648C122.615 112.715 121.942 112.743 121.269 112.726C120.596 112.705 119.923 112.639 119.263 112.494C118.607 112.345 117.952 112.119 117.404 111.708C117.132 111.504 116.899 111.243 116.731 110.949L116.221 110.086C116.05 109.799 115.876 109.514 115.698 109.232C115.518 108.951 115.342 108.666 115.132 108.406C115.35 108.659 115.535 108.939 115.725 109.214C115.912 109.491 116.095 109.771 116.275 110.052C116.653 110.601 116.916 111.249 117.472 111.617C118.007 112 118.651 112.207 119.296 112.337C119.946 112.463 120.609 112.513 121.273 112.517C121.936 112.521 122.6 112.486 123.259 112.41C123.917 112.332 124.577 112.227 125.204 112.044C126.476 111.654 127.747 111.205 129.076 110.948C129.738 110.82 130.421 110.74 131.095 110.733C131.756 110.715 132.418 110.673 133.072 110.582C133.725 110.491 134.373 110.359 134.988 110.149C135.291 110.036 135.593 109.916 135.86 109.747C136.126 109.583 136.378 109.388 136.539 109.138C136.884 108.619 137.061 107.985 137.106 107.343C137.159 106.698 137.108 106.039 137.042 105.379C136.901 104.054 136.732 102.731 136.546 101.409C136.363 100.087 136.168 98.7665 135.936 97.4543C135.696 96.1439 135.463 94.8298 135.027 93.5841C134.602 92.309 134.235 91.0198 133.905 89.7207C133.572 88.4225 133.284 87.1122 133.06 85.7887C132.944 85.128 132.867 84.4554 132.768 83.8035C132.664 83.1488 132.527 82.4992 132.332 81.869C132.137 81.2407 131.886 80.6245 131.514 80.0902C131.327 79.826 131.116 79.5759 130.862 79.3793C130.611 79.1775 130.32 79.0451 130.011 78.9183C128.775 78.4251 127.507 77.994 126.245 77.5572L122.447 76.2736Z" fill="url(#paint19_linear)"/>
<path d="M124.954 79.066C125.672 79.194 126.382 79.367 127.08 79.5761C127.777 79.7897 128.466 80.0431 129.112 80.3871C129.442 80.5608 129.703 80.8433 129.895 81.156C130.091 81.469 130.234 81.811 130.346 82.1598C130.57 82.8595 130.688 83.5863 130.765 84.3132C130.841 85.041 130.869 85.7726 130.869 86.5034C130.869 86.8689 130.861 87.2343 130.847 87.5996C130.83 87.9654 130.808 88.3302 130.804 88.6881C130.808 89.4102 130.888 90.1334 130.984 90.8526C131.08 91.5725 131.202 92.2898 131.332 93.006C131.59 94.439 131.891 95.865 132.134 97.3067C132.259 98.0259 132.35 98.7582 132.427 99.4804C132.509 100.205 132.592 100.93 132.648 101.662C132.698 102.393 132.727 103.133 132.629 103.877C132.576 104.247 132.489 104.617 132.348 104.97C132.313 105.058 132.281 105.146 132.226 105.233C132.175 105.318 132.135 105.413 132.067 105.485C132.004 105.56 131.947 105.643 131.878 105.71L131.665 105.908C131.067 106.392 130.379 106.689 129.701 106.966C129.02 107.242 128.333 107.484 127.669 107.764C127.335 107.903 127.017 108.057 126.7 108.229L125.736 108.748C125.091 109.092 124.443 109.429 123.786 109.751C123.129 110.073 122.464 110.382 121.782 110.658C121.44 110.795 121.093 110.924 120.737 111.032C120.558 111.086 120.377 111.135 120.19 111.172C120.003 111.21 119.812 111.239 119.605 111.234C119.501 111.233 119.389 111.216 119.297 111.187C119.199 111.161 119.1 111.138 119.014 111.099C118.926 111.064 118.835 111.031 118.749 110.993L118.495 110.872C118.16 110.708 117.84 110.525 117.524 110.337C116.893 109.959 116.282 109.555 115.679 109.14C115.077 108.724 114.484 108.297 113.898 107.859C113.605 107.639 113.314 107.419 113.026 107.191C112.74 106.965 112.458 106.755 112.157 106.551C111.56 106.14 110.944 105.752 110.34 105.331C110.038 105.12 109.738 104.906 109.452 104.658C109.309 104.535 109.169 104.402 109.039 104.248C109.006 104.212 108.977 104.162 108.947 104.12C108.918 104.075 108.885 104.037 108.863 103.976C108.841 103.921 108.814 103.864 108.8 103.808L108.775 103.639C108.759 103.187 108.95 102.816 109.156 102.493C109.368 102.169 109.623 101.885 109.895 101.626C110.168 101.366 110.462 101.131 110.769 100.919C111.072 100.707 111.407 100.505 111.767 100.367C112.487 100.078 113.29 100.051 114.034 100.197C114.408 100.272 114.767 100.393 115.117 100.532C115.46 100.684 115.798 100.848 116.115 101.045C116.436 101.232 116.741 101.455 117.036 101.658C117.334 101.864 117.634 102.066 117.939 102.26C118.243 102.456 118.552 102.642 118.865 102.819C119.174 102.991 119.506 103.166 119.811 103.283L119.599 103.34C119.869 103.045 120.146 102.776 120.437 102.513C120.728 102.251 121.03 102.002 121.344 101.767C121.66 101.535 121.99 101.319 122.334 101.124C122.682 100.935 123.046 100.771 123.428 100.647L123.297 100.876C123.215 100.498 123.159 100.127 123.116 99.7493C123.072 99.3727 123.049 98.9929 123.051 98.6108C123.053 98.2293 123.077 97.8441 123.158 97.4617C123.238 97.0814 123.363 96.6962 123.604 96.3574L123.744 96.6558C123.428 96.6237 123.154 96.5422 122.876 96.4328C122.602 96.3222 122.343 96.1754 122.107 95.9968C121.872 95.8173 121.657 95.6107 121.476 95.3769C121.388 95.262 121.301 95.1313 121.227 95.0197C121.153 94.9053 121.077 94.7923 120.995 94.6826C120.676 94.2389 120.302 93.8336 119.924 93.4196C119.735 93.2116 119.545 93.0008 119.37 92.7682C119.196 92.5362 119.033 92.2766 118.949 91.9711L119.256 92.0411C118.989 92.3232 118.7 92.5231 118.39 92.7119C118.082 92.8982 117.754 93.0466 117.417 93.1667C116.743 93.4064 116.032 93.5257 115.324 93.5459L115.058 93.5546L114.793 93.5446C114.616 93.5336 114.438 93.5383 114.263 93.5118L113.737 93.4508C113.566 93.4323 113.4 93.4052 113.228 93.3934C112.543 93.3355 111.849 93.3137 111.155 93.297C108.379 93.24 105.595 93.2373 102.815 93.1246C100.036 93.0124 97.2537 92.8093 94.505 92.361C93.1328 92.1315 91.7657 91.8417 90.4463 91.3935L89.9534 91.2215C89.7894 91.163 89.6308 91.0904 89.4693 91.0256C89.1435 90.9019 88.8363 90.7363 88.5238 90.5836C87.9161 90.246 87.334 89.8532 86.8517 89.3491C87.3409 89.8465 87.9272 90.2298 88.5375 90.5578C88.8515 90.7057 89.1592 90.8663 89.4861 90.9853C89.6479 91.0476 89.8066 91.1177 89.971 91.1737L90.4646 91.3383C91.7855 91.7663 93.152 92.0361 94.5233 92.2458C97.27 92.6583 100.048 92.8092 102.823 92.9002C105.6 92.9909 108.378 92.9718 111.161 93.0069C111.857 93.0183 112.554 93.0343 113.254 93.0879C113.429 93.0986 113.607 93.1255 113.782 93.1434L114.291 93.1984C114.461 93.2229 114.632 93.2164 114.802 93.2259L115.058 93.2337L115.313 93.2231C115.992 93.1985 116.667 93.0787 117.302 92.8476C117.618 92.7319 117.926 92.5901 118.211 92.414C118.493 92.2422 118.776 92.0343 118.986 91.8088L119.203 91.576L119.293 91.8791C119.433 92.3525 119.824 92.7661 120.192 93.1754C120.568 93.5856 120.956 94.0031 121.292 94.4664C121.377 94.5811 121.458 94.6997 121.536 94.8199C121.617 94.9401 121.685 95.0424 121.767 95.1494C121.929 95.3579 122.121 95.5404 122.33 95.6996C122.745 96.0145 123.269 96.2243 123.767 96.2809L124.093 96.3177L123.907 96.5791C123.713 96.8525 123.6 97.1904 123.529 97.537C123.456 97.885 123.433 98.2489 123.433 98.6121C123.431 98.976 123.455 99.342 123.498 99.7062C123.54 100.069 123.597 100.437 123.674 100.788L123.712 100.961L123.543 101.017C123.192 101.132 122.852 101.285 122.523 101.465C122.198 101.651 121.883 101.858 121.579 102.083C121.276 102.31 120.984 102.552 120.703 102.807C120.423 103.061 120.148 103.33 119.899 103.605L119.806 103.707L119.687 103.662C119.31 103.519 118.997 103.35 118.669 103.17C118.346 102.99 118.031 102.799 117.721 102.602C117.097 102.217 116.506 101.762 115.904 101.397C115.601 101.21 115.281 101.056 114.958 100.914C114.63 100.784 114.296 100.674 113.954 100.606C113.271 100.475 112.559 100.502 111.92 100.761C111.599 100.885 111.306 101.061 111.012 101.267C110.721 101.471 110.443 101.691 110.187 101.934C109.932 102.175 109.696 102.438 109.509 102.724C109.322 103.006 109.179 103.326 109.192 103.612C109.198 103.861 109.465 104.114 109.724 104.344C109.988 104.575 110.281 104.786 110.576 104.993C111.168 105.407 111.784 105.798 112.388 106.216C112.689 106.421 112.991 106.647 113.277 106.874C113.56 107.099 113.849 107.319 114.139 107.538C114.72 107.974 115.308 108.4 115.905 108.814C116.501 109.228 117.106 109.63 117.724 110.003C118.034 110.187 118.347 110.367 118.666 110.525C118.982 110.682 119.317 110.828 119.616 110.85C119.935 110.856 120.289 110.765 120.627 110.667C120.968 110.564 121.306 110.44 121.641 110.306C122.311 110.038 122.969 109.733 123.622 109.416C124.275 109.098 124.921 108.764 125.564 108.424L126.526 107.908C126.85 107.734 127.189 107.571 127.528 107.431C128.208 107.145 128.899 106.907 129.571 106.641C130.241 106.376 130.91 106.086 131.452 105.653L131.641 105.479C131.703 105.421 131.749 105.351 131.805 105.288C131.865 105.227 131.894 105.149 131.938 105.08C131.983 105.013 132.015 104.93 132.048 104.849C132.179 104.526 132.264 104.183 132.316 103.832C132.416 103.129 132.395 102.404 132.35 101.682C132.3 100.96 132.223 100.236 132.148 99.511C132.076 98.783 131.992 98.0677 131.873 97.3494C131.643 95.914 131.352 94.4846 131.106 93.046C130.981 92.327 130.863 91.606 130.773 90.8799C130.686 90.1539 130.615 89.4236 130.622 88.687C130.631 88.3163 130.659 87.9537 130.679 87.5918C130.699 87.2288 130.712 86.8656 130.717 86.5022C130.727 85.7757 130.709 85.0481 130.644 84.3248C130.578 83.6024 130.471 82.8803 130.259 82.1874C130.153 81.8418 130.018 81.5039 129.83 81.1961C129.647 80.8878 129.399 80.6127 129.083 80.4405C128.447 80.0905 127.764 79.828 127.071 79.6051C126.377 79.3866 125.67 79.2037 124.954 79.066Z" fill="url(#paint20_linear)"/>
<path d="M126.225 102.235L126.002 101.995C125.921 101.922 125.849 101.841 125.761 101.777C125.6 101.634 125.419 101.518 125.234 101.415C125.045 101.318 124.847 101.241 124.644 101.188C124.443 101.137 124.227 101.103 124.032 101.113L124.061 100.91C124.307 101.009 124.52 101.142 124.728 101.293C124.932 101.447 125.122 101.621 125.279 101.824C125.436 102.026 125.564 102.251 125.65 102.491C125.732 102.731 125.772 102.985 125.763 103.234C125.722 102.988 125.66 102.749 125.55 102.532C125.449 102.311 125.311 102.11 125.149 101.933C124.988 101.755 124.805 101.596 124.608 101.458C124.414 101.319 124.198 101.198 123.985 101.106L123.547 100.916L124.014 100.903C124.257 100.896 124.478 100.932 124.697 100.998C124.914 101.065 125.123 101.157 125.312 101.28C125.499 101.405 125.68 101.54 125.829 101.705C125.981 101.868 126.112 102.047 126.225 102.235Z" fill="url(#paint21_linear)"/>
<path d="M123.503 97.146C123.835 96.4588 124.25 95.8184 124.7 95.2044C125.157 94.5974 125.655 94.0092 126.253 93.5321C125.776 94.1266 125.321 94.7239 124.871 95.3314C124.419 95.9368 123.977 96.5487 123.503 97.146Z" fill="url(#paint22_linear)"/>
<path d="M120.378 107.156C120.321 107.029 120.221 106.926 120.142 106.81C120.059 106.696 119.976 106.581 119.904 106.458C119.76 106.214 119.638 105.952 119.554 105.676C119.387 105.123 119.388 104.522 119.527 103.964L119.7 104.065C119.581 104.19 119.482 104.378 119.413 104.56C119.344 104.746 119.299 104.944 119.271 105.146C119.239 105.347 119.243 105.553 119.242 105.759L119.257 106.069C119.27 106.172 119.279 106.276 119.288 106.381C119.26 106.28 119.232 106.179 119.207 106.077L119.149 105.767C119.122 105.558 119.109 105.345 119.122 105.132C119.132 104.919 119.163 104.704 119.232 104.497C119.304 104.288 119.39 104.092 119.558 103.912L119.817 103.635L119.73 104.013C119.608 104.544 119.593 105.099 119.725 105.63C119.784 105.897 119.881 106.157 120.002 106.406C120.063 106.53 120.125 106.655 120.194 106.777C120.258 106.9 120.344 107.017 120.378 107.156Z" fill="url(#paint23_linear)"/>
<path d="M110.708 101.06C110.534 100.522 110.55 99.9038 110.807 99.3657C110.937 99.0983 111.128 98.8607 111.352 98.6622C111.578 98.4733 111.827 98.3127 112.09 98.1803C112.614 97.9118 113.203 97.7773 113.795 97.7571C114.389 97.7417 114.983 97.8667 115.527 98.097C116.067 98.3356 116.563 98.6639 116.992 99.0586C117.414 99.4657 117.786 99.8916 118.142 100.333C118.502 100.771 118.848 101.222 119.17 101.69C119.484 102.162 119.803 102.641 119.999 103.175C119.718 102.685 119.361 102.249 119.003 101.816C118.645 101.383 118.269 100.966 117.891 100.551C117.508 100.138 117.129 99.7187 116.723 99.3594C116.313 98.9978 115.854 98.6999 115.36 98.4886C114.378 98.051 113.225 98.051 112.229 98.4802C111.98 98.5864 111.747 98.7248 111.525 98.8791C111.313 99.0386 111.128 99.2345 110.99 99.4644C110.71 99.923 110.625 100.503 110.708 101.06Z" fill="url(#paint24_linear)"/>
<path d="M107.411 97.8416C107.648 97.7093 107.904 97.6174 108.15 97.5046C108.397 97.3953 108.642 97.2813 108.884 97.1606C109.368 96.922 109.841 96.6628 110.288 96.3642C110.735 96.0656 111.163 95.7403 111.547 95.3687C111.93 94.9972 112.265 94.5784 112.524 94.1158L112.723 93.7577L112.721 94.1625C112.717 94.7549 112.568 95.306 112.372 95.8415C112.169 96.3732 111.909 96.8823 111.587 97.3489C110.951 98.288 110.134 99.0883 109.229 99.7509C109.653 99.3832 110.061 98.9991 110.432 98.581C110.808 98.169 111.153 97.7287 111.448 97.2577C111.743 96.7875 112.002 96.2944 112.189 95.7738C112.375 95.2582 112.506 94.7037 112.51 94.1724L112.708 94.2189C112.432 94.6999 112.078 95.1298 111.68 95.5075C111.28 95.8838 110.842 96.2168 110.375 96.4995C109.91 96.7858 109.424 97.0331 108.926 97.2526C108.429 97.4732 107.912 97.6411 107.411 97.8416Z" fill="url(#paint25_linear)"/>
<path d="M113.744 93.2946C113.467 93.3751 113.196 93.4901 112.974 93.6584C112.867 93.7416 112.771 93.8538 112.731 93.9608C112.702 94.0585 112.752 94.1882 112.819 94.2993C112.956 94.528 113.161 94.7263 113.377 94.9003C113.595 95.0744 113.83 95.2281 114.077 95.3584C114.324 95.4873 114.582 95.5943 114.846 95.6776C115.108 95.7609 115.382 95.8085 115.665 95.8486C116.225 95.9316 116.805 95.9777 117.386 96.0628C117.966 96.1569 118.551 96.2911 119.106 96.5144C119.657 96.7416 120.179 97.0543 120.638 97.4183C121.557 98.1243 122.453 98.863 123.305 99.6512L120.442 97.6867C119.97 97.3633 119.487 97.084 118.959 96.8901C118.435 96.6921 117.884 96.568 117.322 96.4836C116.759 96.3928 116.183 96.3459 115.601 96.2457C115.313 96.1947 115.016 96.133 114.729 96.031C114.443 95.9323 114.171 95.8012 113.914 95.6468C113.659 95.4906 113.414 95.3163 113.195 95.1101C112.978 94.9029 112.773 94.6781 112.635 94.3952C112.575 94.2552 112.511 94.0854 112.582 93.9032C112.663 93.7467 112.782 93.6491 112.91 93.5664C113.168 93.4079 113.456 93.3312 113.744 93.2946Z" fill="url(#paint26_linear)"/>
<path d="M122.013 114.688C122.002 114.277 121.825 113.899 121.515 113.728C121.363 113.63 121.192 113.596 120.999 113.554C120.801 113.513 120.601 113.479 120.404 113.431C120.008 113.346 119.615 113.247 119.223 113.144C118.833 113.035 118.444 112.922 118.058 112.791L118.182 112.756C118.129 112.799 118.071 112.862 118.023 112.924C117.974 112.986 117.929 113.052 117.893 113.124C117.82 113.267 117.781 113.431 117.799 113.606C117.765 113.527 117.73 113.441 117.726 113.349C117.719 113.258 117.722 113.163 117.745 113.073C117.767 112.982 117.798 112.893 117.839 112.809C117.883 112.724 117.928 112.649 117.995 112.567L118.034 112.52L118.118 112.532C118.522 112.591 118.921 112.668 119.319 112.749C119.715 112.836 120.111 112.927 120.504 113.032C120.701 113.079 120.895 113.141 121.091 113.195C121.289 113.251 121.514 113.34 121.689 113.489C121.866 113.637 121.997 113.842 122.043 114.058C122.096 114.273 122.081 114.493 122.013 114.688Z" fill="url(#paint27_linear)"/>
<defs>
<linearGradient id="paint0_linear" x1="194.513" y1="152.569" x2="176.852" y2="94.3998" gradientUnits="userSpaceOnUse">
<stop stop-color="#141333"/>
<stop offset="0.443013" stop-color="#202261"/>
<stop offset="0.802083" stop-color="#543C97"/>
<stop offset="0.973958" stop-color="#6939A2"/>
</linearGradient>
<linearGradient id="paint1_linear" x1="201.209" y1="119.628" x2="194.889" y2="85.7504" gradientUnits="userSpaceOnUse">
<stop stop-color="#141333"/>
<stop offset="0.443013" stop-color="#202261"/>
<stop offset="0.802083" stop-color="#543C97"/>
<stop offset="0.973958" stop-color="#6939A2"/>
</linearGradient>
<linearGradient id="paint2_linear" x1="206.457" y1="114.869" x2="200.206" y2="87.8329" gradientUnits="userSpaceOnUse">
<stop stop-color="#141333"/>
<stop offset="0.443013" stop-color="#202261"/>
<stop offset="0.802083" stop-color="#543C97"/>
<stop offset="0.973958" stop-color="#6939A2"/>
</linearGradient>
<linearGradient id="paint3_linear" x1="210.966" y1="72.8563" x2="210.394" y2="71.222" gradientUnits="userSpaceOnUse">
<stop stop-color="#141333"/>
<stop offset="0.443013" stop-color="#202261"/>
<stop offset="0.802083" stop-color="#543C97"/>
<stop offset="0.973958" stop-color="#6939A2"/>
</linearGradient>
<linearGradient id="paint4_linear" x1="200.472" y1="74.5078" x2="199.673" y2="71.9768" gradientUnits="userSpaceOnUse">
<stop stop-color="#141333"/>
<stop offset="0.443013" stop-color="#202261"/>
<stop offset="0.802083" stop-color="#543C97"/>
<stop offset="0.973958" stop-color="#6939A2"/>
</linearGradient>
<linearGradient id="paint5_linear" x1="214.034" y1="77.9363" x2="213.564" y2="76.5968" gradientUnits="userSpaceOnUse">
<stop stop-color="#141333"/>
<stop offset="0.443013" stop-color="#202261"/>
<stop offset="0.802083" stop-color="#543C97"/>
<stop offset="0.973958" stop-color="#6939A2"/>
</linearGradient>
<linearGradient id="paint6_linear" x1="211.632" y1="87.5013" x2="211.224" y2="86.4573" gradientUnits="userSpaceOnUse">
<stop stop-color="#141333"/>
<stop offset="0.443013" stop-color="#202261"/>
<stop offset="0.802083" stop-color="#543C97"/>
<stop offset="0.973958" stop-color="#6939A2"/>
</linearGradient>
<linearGradient id="paint7_linear" x1="209.479" y1="86.6268" x2="208.844" y2="84.2185" gradientUnits="userSpaceOnUse">
<stop stop-color="#141333"/>
<stop offset="0.443013" stop-color="#202261"/>
<stop offset="0.802083" stop-color="#543C97"/>
<stop offset="0.973958" stop-color="#6939A2"/>
</linearGradient>
<linearGradient id="paint8_linear" x1="209.53" y1="86.6825" x2="208.802" y2="83.1391" gradientUnits="userSpaceOnUse">
<stop stop-color="#141333"/>
<stop offset="0.443013" stop-color="#202261"/>
<stop offset="0.802083" stop-color="#543C97"/>
<stop offset="0.973958" stop-color="#6939A2"/>
</linearGradient>
<linearGradient id="paint9_linear" x1="209.816" y1="93.5126" x2="209.258" y2="91.6619" gradientUnits="userSpaceOnUse">
<stop stop-color="#141333"/>
<stop offset="0.443013" stop-color="#202261"/>
<stop offset="0.802083" stop-color="#543C97"/>
<stop offset="0.973958" stop-color="#6939A2"/>
</linearGradient>
<linearGradient id="paint10_linear" x1="218.766" y1="92.8058" x2="218.927" y2="91.0548" gradientUnits="userSpaceOnUse">
<stop stop-color="#141333"/>
<stop offset="0.443013" stop-color="#202261"/>
<stop offset="0.802083" stop-color="#543C97"/>
<stop offset="0.973958" stop-color="#6939A2"/>
</linearGradient>
<linearGradient id="paint11_linear" x1="226.663" y1="80.2066" x2="227.808" y2="74.8203" gradientUnits="userSpaceOnUse">
<stop stop-color="#141333"/>
<stop offset="0.443013" stop-color="#202261"/>
<stop offset="0.802083" stop-color="#543C97"/>
<stop offset="0.973958" stop-color="#6939A2"/>
</linearGradient>
<linearGradient id="paint12_linear" x1="221.406" y1="108.078" x2="211.985" y2="80.2296" gradientUnits="userSpaceOnUse">
<stop stop-color="#141333"/>
<stop offset="0.443013" stop-color="#202261"/>
<stop offset="0.802083" stop-color="#543C97"/>
<stop offset="0.973958" stop-color="#6939A2"/>
</linearGradient>
<linearGradient id="paint13_linear" x1="223.314" y1="91.266" x2="221.189" y2="85.3249" gradientUnits="userSpaceOnUse">
<stop stop-color="#141333"/>
<stop offset="0.443013" stop-color="#202261"/>
<stop offset="0.802083" stop-color="#543C97"/>
<stop offset="0.973958" stop-color="#6939A2"/>
</linearGradient>
<linearGradient id="paint14_linear" x1="175.905" y1="124.673" x2="170.29" y2="106.63" gradientUnits="userSpaceOnUse">
<stop stop-color="#141333"/>
<stop offset="0.443013" stop-color="#202261"/>
<stop offset="0.802083" stop-color="#543C97"/>
<stop offset="0.973958" stop-color="#6939A2"/>
</linearGradient>
<linearGradient id="paint15_linear" x1="31.4452" y1="134.686" x2="20.2213" y2="96.9" gradientUnits="userSpaceOnUse">
<stop stop-color="#141333"/>
<stop offset="0.443013" stop-color="#202261"/>
<stop offset="0.802083" stop-color="#543C97"/>
<stop offset="0.973958" stop-color="#6939A2"/>
</linearGradient>
<linearGradient id="paint16_linear" x1="23.3951" y1="159.767" x2="-0.36418" y2="72.9154" gradientUnits="userSpaceOnUse">
<stop stop-color="#141333"/>
<stop offset="0.443013" stop-color="#202261"/>
<stop offset="0.802083" stop-color="#543C97"/>
<stop offset="0.973958" stop-color="#6939A2"/>
</linearGradient>
<linearGradient id="paint17_linear" x1="164.803" y1="101.214" x2="164.256" y2="96.8555" gradientUnits="userSpaceOnUse">
<stop stop-color="#141333"/>
<stop offset="0.443013" stop-color="#202261"/>
<stop offset="0.802083" stop-color="#543C97"/>
<stop offset="0.973958" stop-color="#6939A2"/>
</linearGradient>
<linearGradient id="paint18_linear" x1="116.336" y1="122.696" x2="110.097" y2="88.7724" gradientUnits="userSpaceOnUse">
<stop stop-color="#141333"/>
<stop offset="0.443013" stop-color="#202261"/>
<stop offset="0.802083" stop-color="#543C97"/>
<stop offset="0.973958" stop-color="#6939A2"/>
</linearGradient>
<linearGradient id="paint19_linear" x1="115.354" y1="118.534" x2="110.063" y2="89.257" gradientUnits="userSpaceOnUse">
<stop stop-color="#141333"/>
<stop offset="0.443013" stop-color="#202261"/>
<stop offset="0.802083" stop-color="#543C97"/>
<stop offset="0.973958" stop-color="#6939A2"/>
</linearGradient>
<linearGradient id="paint20_linear" x1="93.7377" y1="122.041" x2="86.455" y2="95.8206" gradientUnits="userSpaceOnUse">
<stop stop-color="#141333"/>
<stop offset="0.443013" stop-color="#202261"/>
<stop offset="0.802083" stop-color="#543C97"/>
<stop offset="0.973958" stop-color="#6939A2"/>
</linearGradient>
<linearGradient id="paint21_linear" x1="124.415" y1="103.781" x2="124.021" y2="101.391" gradientUnits="userSpaceOnUse">
<stop stop-color="#141333"/>
<stop offset="0.443013" stop-color="#202261"/>
<stop offset="0.802083" stop-color="#543C97"/>
<stop offset="0.973958" stop-color="#6939A2"/>
</linearGradient>
<linearGradient id="paint22_linear" x1="123.005" y1="97.3481" x2="122.444" y2="95.5115" gradientUnits="userSpaceOnUse">
<stop stop-color="#141333"/>
<stop offset="0.443013" stop-color="#202261"/>
<stop offset="0.802083" stop-color="#543C97"/>
<stop offset="0.973958" stop-color="#6939A2"/>
</linearGradient>
<linearGradient id="paint23_linear" x1="119.519" y1="107.505" x2="119.37" y2="104.772" gradientUnits="userSpaceOnUse">
<stop stop-color="#141333"/>
<stop offset="0.443013" stop-color="#202261"/>
<stop offset="0.802083" stop-color="#543C97"/>
<stop offset="0.973958" stop-color="#6939A2"/>
</linearGradient>
<linearGradient id="paint24_linear" x1="111.764" y1="106.518" x2="110.273" y2="100.42" gradientUnits="userSpaceOnUse">
<stop stop-color="#141333"/>
<stop offset="0.443013" stop-color="#202261"/>
<stop offset="0.802083" stop-color="#543C97"/>
<stop offset="0.973958" stop-color="#6939A2"/>
</linearGradient>
<linearGradient id="paint25_linear" x1="107.51" y1="100.448" x2="106.516" y2="97.078" gradientUnits="userSpaceOnUse">
<stop stop-color="#141333"/>
<stop offset="0.443013" stop-color="#202261"/>
<stop offset="0.802083" stop-color="#543C97"/>
<stop offset="0.973958" stop-color="#6939A2"/>
</linearGradient>
<linearGradient id="paint26_linear" x1="114.968" y1="103.036" x2="113.369" y2="95.3564" gradientUnits="userSpaceOnUse">
<stop stop-color="#141333"/>
<stop offset="0.443013" stop-color="#202261"/>
<stop offset="0.802083" stop-color="#543C97"/>
<stop offset="0.973958" stop-color="#6939A2"/>
</linearGradient>
<linearGradient id="paint27_linear" x1="118.29" y1="116.199" x2="117.584" y2="113.394" gradientUnits="userSpaceOnUse">
<stop stop-color="#141333"/>
<stop offset="0.443013" stop-color="#202261"/>
<stop offset="0.802083" stop-color="#543C97"/>
<stop offset="0.973958" stop-color="#6939A2"/>
</linearGradient>
</defs>
</svg>
