<svg width="28" height="28" viewBox="0 0 28 28" fill="none" xmlns="http://www.w3.org/2000/svg">
<path d="M15.0493 13.9958L22.9285 6.10886C23.0675 5.96917 23.1455 5.78008 23.1454 5.58302C23.1452 5.38595 23.067 5.19697 22.9278 5.05746C22.6492 4.78026 22.1585 4.77886 21.8771 5.05886L14 12.9458L6.12011 5.05676C5.84011 4.78026 5.34941 4.78166 5.07081 5.05816C5.00166 5.12704 4.94692 5.209 4.90978 5.29926C4.87264 5.38951 4.85385 5.48626 4.85451 5.58386C4.85451 5.78266 4.93151 5.96886 5.07081 6.10676L12.95 13.9951L5.07151 21.8841C4.93248 22.024 4.85462 22.2133 4.85501 22.4105C4.85541 22.6078 4.93402 22.7968 5.07361 22.9362C5.20871 23.0699 5.39981 23.1469 5.59721 23.1469H5.60141C5.79951 23.1462 5.99061 23.0685 6.12291 22.9334L14 15.0465L21.8799 22.9355C22.0192 23.0741 22.2054 23.1511 22.4028 23.1511C22.5004 23.1513 22.5971 23.1323 22.6874 23.0951C22.7776 23.0579 22.8596 23.0032 22.9286 22.9341C22.9976 22.8651 23.0523 22.7831 23.0895 22.6929C23.1268 22.6027 23.1458 22.506 23.1455 22.4084C23.1455 22.2103 23.0685 22.0234 22.9285 21.8855L15.0493 13.9958Z" fill="#A7A7A7"/>
</svg>
