<svg width="44" height="44" viewBox="0 0 44 44" fill="none" xmlns="http://www.w3.org/2000/svg">
<path fill-rule="evenodd" clip-rule="evenodd" d="M2.00012 22C2.00012 10.9596 10.9597 2 22.0001 2C33.0405 2 42.0001 10.9596 42.0001 22C42.0001 33.0404 33.0405 42 22.0001 42C10.9597 42 2.00012 33.0404 2.00012 22ZM22.0001 4.7907C12.501 4.7907 4.79082 12.5009 4.79082 22C4.79082 31.4991 12.501 39.2093 22.0001 39.2093C31.4993 39.2093 39.2094 31.4991 39.2094 22C39.2094 12.5009 31.4993 4.7907 22.0001 4.7907Z" fill="white"/>
<path d="M20.4177 22.9137C20.4785 23.7047 20.5815 24.2925 20.7232 24.6803C20.8667 25.0669 21.1215 25.2597 21.4892 25.2597C21.558 25.2597 21.6195 25.2463 21.6805 25.2306C21.743 25.2463 21.8042 25.2597 21.8735 25.2597C22.2402 25.2597 22.4958 25.0669 22.6385 24.6803C22.781 24.2925 22.8823 23.7047 22.9443 22.9137L23.2708 16.8069C23.3315 15.6166 23.3625 14.7625 23.3625 14.2441C23.3625 13.5384 23.2153 12.9878 22.9198 12.5925C22.6233 12.1972 22.2338 12 21.7513 12C21.7255 12 21.7062 12.0072 21.681 12.0084C21.657 12.0072 21.6372 12 21.6122 12C21.1287 12 20.74 12.1972 20.444 12.5925C20.1482 12.9884 20 13.5394 20 14.2444C20 14.7628 20.0303 15.6169 20.092 16.8072L20.4177 22.9137Z" fill="white"/>
<path d="M21.6932 27.4917C21.2247 27.4917 20.8267 27.6764 20.4962 28.0458C20.166 28.4154 20.0005 28.8642 20.0005 29.3911C20.0005 29.9858 20.168 30.4539 20.5005 30.7939C20.8345 31.1339 21.224 31.3039 21.6692 31.3039C22.1225 31.3039 22.5177 31.1364 22.8557 30.8004C23.1932 30.4654 23.362 29.9948 23.362 29.3917C23.362 28.8648 23.2005 28.4161 22.8775 28.0464C22.5545 27.6764 22.1597 27.4917 21.6925 27.4917" fill="white"/>
</svg>
