<svg width="22" height="22" viewBox="0 0 22 22" fill="none" xmlns="http://www.w3.org/2000/svg">
<rect x="1" y="1" width="20" height="20" rx="10" stroke="white" stroke-width="2"/>
<path d="M5.67363 11.4461C5.64257 11.3995 5.60476 11.3575 5.57429 11.3105C5.52476 11.2341 5.5 11.1446 5.5 11.0799C5.5 10.9952 5.54231 10.8683 5.62692 10.7837L6.21923 10.1914C6.38846 10.0222 6.64231 10.0222 6.81154 10.1914L6.85385 10.2337L9.18077 12.7299C9.26538 12.8145 9.39231 12.8145 9.47692 12.7299L15.1313 6.86452C15.1408 6.85466 15.1539 6.84909 15.1676 6.84909C15.1809 6.84909 15.1937 6.84367 15.2036 6.83465C15.3725 6.68001 15.6165 6.68482 15.7808 6.84909L16.3731 7.4414C16.5423 7.61063 16.5423 7.86448 16.3731 8.03371L9.60385 15.0568C9.51923 15.1414 9.43461 15.1837 9.30769 15.1837C9.18077 15.1837 9.09615 15.1414 9.01154 15.0568L5.75804 11.553C5.72709 11.5197 5.69886 11.4839 5.67363 11.4461Z" fill="white"/>
</svg>
