<svg width="36" height="33" viewBox="0 0 36 33" fill="none" xmlns="http://www.w3.org/2000/svg">
    <path d="M34.6642 4.97022C33.1754 1.91467 28.8865 -0.585333 23.8976 0.870223C21.5136 1.55882 19.4337 3.03554 17.9976 5.05911C16.5614 3.03554 14.4815 1.55882 12.0976 0.870223C7.09757 -0.563111 2.8198 1.91467 1.33091 4.97022C-0.757982 9.248 0.108685 14.0591 3.90868 19.2702C6.88646 23.348 11.142 27.4813 17.3198 32.2813C17.515 32.4336 17.7555 32.5163 18.0031 32.5163C18.2507 32.5163 18.4912 32.4336 18.6865 32.2813C24.8531 27.4924 29.1198 23.3924 32.0976 19.2702C35.8865 14.0591 36.7531 9.248 34.6642 4.97022Z" fill="url(#paint0_linear)"/>
    <defs>
        <linearGradient id="paint0_linear" x1="-4.66551" y1="0.444336" x2="-1.09891" y2="26.6781" gradientUnits="userSpaceOnUse">
            <stop stop-color="#141333"/>
            <stop offset="0.443013" stop-color="#202261"/>
            <stop offset="0.802083" stop-color="#543C97"/>
            <stop offset="0.973958" stop-color="#6939A2"/>
        </linearGradient>
    </defs>
</svg>

