<svg width="24" height="24" viewBox="0 0 24 24" fill="none" xmlns="http://www.w3.org/2000/svg">
<path fill-rule="evenodd" clip-rule="evenodd" d="M18.6667 12.9715C17.6118 12.9715 16.5807 12.6791 15.7036 12.1313C14.8266 11.5834 14.143 10.8047 13.7393 9.89372C13.3356 8.98269 13.23 7.98022 13.4358 7.01308C13.6416 6.04594 14.1496 5.15757 14.8954 4.4603C15.6413 3.76303 16.5916 3.28818 17.6262 3.0958C18.6608 2.90343 19.7331 3.00216 20.7076 3.37952C21.6822 3.75688 22.5151 4.39592 23.1012 5.21582C23.6872 6.03572 24 6.99967 24 7.98576C24 9.82176 23.0432 11.3825 19.4872 21.1795H16.8205L18.6667 12.9715ZM5.33334 12.9715C4.2785 12.9715 3.24736 12.6791 2.37029 12.1313C1.49323 11.5834 0.809646 10.8047 0.405978 9.89372C0.00231085 8.98269 -0.103307 7.98022 0.102481 7.01308C0.308269 6.04594 0.816219 5.15757 1.5621 4.4603C2.30798 3.76303 3.25829 3.28818 4.29285 3.0958C5.32742 2.90343 6.39978 3.00216 7.37431 3.37952C8.34885 3.75688 9.1818 4.39592 9.76784 5.21582C10.3539 6.03572 10.6667 6.99967 10.6667 7.98576C10.6667 9.82176 9.70985 11.3825 6.15385 21.1795H3.48718L5.33334 12.9715Z" fill="url(#paint0_linear)"/>
<defs>
<linearGradient id="paint0_linear" x1="-3.3" y1="3" x2="-1.5934" y2="17.9503" gradientUnits="userSpaceOnUse">
<stop stop-color="#141333"/>
<stop offset="0.443013" stop-color="#202261"/>
<stop offset="0.802083" stop-color="#543C97"/>
<stop offset="0.973958" stop-color="#6939A2"/>
</linearGradient>
</defs>
</svg>
