<svg width="22" height="22" viewBox="0 0 22 22" fill="none" xmlns="http://www.w3.org/2000/svg">
    <rect x="1" y="1" width="20" height="20" rx="10" stroke="url(#paint0_linear)" stroke-width="2"/>
    <path d="M5.67363 11.4462C5.64257 11.3996 5.60476 11.3576 5.57429 11.3106C5.52476 11.2342 5.5 11.1447 5.5 11.08C5.5 10.9954 5.54231 10.8684 5.62692 10.7838L6.21923 10.1915C6.38846 10.0223 6.64231 10.0223 6.81154 10.1915L6.85385 10.2338L9.18077 12.73C9.26538 12.8146 9.39231 12.8146 9.47692 12.73L15.1313 6.86464C15.1408 6.85478 15.1539 6.84921 15.1676 6.84921C15.1809 6.84921 15.1937 6.8438 15.2036 6.83477C15.3725 6.68013 15.6165 6.68494 15.7808 6.84921L16.3731 7.44152C16.5423 7.61075 16.5423 7.8646 16.3731 8.03383L9.60385 15.0569C9.51923 15.1415 9.43461 15.1838 9.30769 15.1838C9.18077 15.1838 9.09615 15.1415 9.01154 15.0569L5.75804 11.5531C5.72709 11.5198 5.69886 11.484 5.67363 11.4462Z" fill="#333333"/>
    <defs>
        <linearGradient id="paint0_linear" x1="-16.2827" y1="-5.04167" x2="-8.83733" y2="23.826" gradientUnits="userSpaceOnUse">
            <stop stop-color="#141333"/>
            <stop offset="0.443013" stop-color="#202261"/>
            <stop offset="0.802083" stop-color="#543C97"/>
            <stop offset="0.973958" stop-color="#6939A2"/>
        </linearGradient>
    </defs>
</svg>

