<svg width="44" height="44" viewBox="0 0 44 44" fill="none" xmlns="http://www.w3.org/2000/svg">
<path fill-rule="evenodd" clip-rule="evenodd" d="M2 22C2 10.9596 10.9596 2 22 2C33.0404 2 42 10.9596 42 22C42 33.0404 33.0404 42 22 42C10.9596 42 2 33.0404 2 22ZM22 4.7907C12.5009 4.7907 4.7907 12.5009 4.7907 22C4.7907 31.4991 12.5009 39.2093 22 39.2093C31.4991 39.2093 39.2093 31.4991 39.2093 22C39.2093 12.5009 31.4991 4.7907 22 4.7907Z" fill="#6A3AA2"/>
<path d="M20.4177 22.9137C20.4785 23.7047 20.5815 24.2925 20.7232 24.6803C20.8667 25.0669 21.1215 25.2597 21.4892 25.2597C21.558 25.2597 21.6195 25.2463 21.6805 25.2306C21.743 25.2463 21.8042 25.2597 21.8735 25.2597C22.2402 25.2597 22.4958 25.0669 22.6385 24.6803C22.781 24.2925 22.8823 23.7047 22.9443 22.9137L23.2708 16.8069C23.3315 15.6166 23.3625 14.7625 23.3625 14.2441C23.3625 13.5384 23.2153 12.9878 22.9198 12.5925C22.6233 12.1972 22.2338 12 21.7513 12C21.7255 12 21.7062 12.0072 21.681 12.0084C21.657 12.0072 21.6372 12 21.6122 12C21.1287 12 20.74 12.1972 20.444 12.5925C20.1482 12.9884 20 13.5394 20 14.2444C20 14.7628 20.0303 15.6169 20.092 16.8072L20.4177 22.9137Z" fill="#6A3AA2"/>
<path d="M21.6937 27.4922C21.2252 27.4922 20.8272 27.6769 20.4967 28.0462C20.1665 28.4159 20.001 28.8647 20.001 29.3916C20.001 29.9862 20.1685 30.4544 20.501 30.7944C20.835 31.1344 21.2245 31.3044 21.6697 31.3044C22.123 31.3044 22.5182 31.1369 22.8562 30.8009C23.1937 30.4659 23.3625 29.9953 23.3625 29.3922C23.3625 28.8653 23.201 28.4166 22.878 28.0469C22.555 27.6769 22.1602 27.4922 21.693 27.4922" fill="#6A3AA2"/>
</svg>
