<svg width="24" height="24" viewBox="0 0 24 24" fill="none" xmlns="http://www.w3.org/2000/svg">
<path fill-rule="evenodd" clip-rule="evenodd" d="M23 12C23 14.9174 21.8411 17.7153 19.7782 19.7782C17.7153 21.8411 14.9174 23 12 23C9.08262 23 6.28473 21.8411 4.22183 19.7782C2.15893 17.7153 1 14.9174 1 12C1 9.08262 2.15893 6.28473 4.22183 4.22183C6.28473 2.15893 9.08262 1 12 1C14.9174 1 17.7153 2.15893 19.7782 4.22183C21.8411 6.28473 23 9.08262 23 12ZM10.0338 9.29537H8.21875C8.1775 6.70213 10.185 5.8125 12.0082 5.8125C13.9291 5.8125 15.6836 6.81625 15.6836 8.8925C15.6836 10.3775 14.8105 11.0842 13.9731 11.7209C12.9598 12.4895 12.5844 12.7769 12.5844 13.7641V14.2522H10.7859L10.7762 13.6156C10.724 12.341 11.4569 11.5559 12.3822 10.8835C13.1935 10.273 13.7091 9.8715 13.7091 8.99837C13.7091 7.864 12.8456 7.39237 11.9024 7.39237C10.6635 7.39237 10.0351 8.2215 10.0351 9.29537H10.0338ZM11.7539 18.1545C10.9509 18.1545 10.3665 17.6127 10.3665 16.8799C10.3665 16.1209 10.9509 15.5874 11.7552 15.5874C12.5926 15.5874 13.1688 16.1209 13.1688 16.8799C13.1688 17.6127 12.5913 18.1545 11.7539 18.1545Z" fill="#959696"/>
</svg>
