<svg width="16" height="16" viewBox="0 0 16 16" fill="none" xmlns="http://www.w3.org/2000/svg">
<path fill-rule="evenodd" clip-rule="evenodd" d="M11.6082 10.3424L15.7242 14.4671C15.9577 14.6896 16.0524 15.0214 15.9716 15.3339C15.8909 15.6464 15.6474 15.8905 15.3355 15.9717C15.0236 16.0528 14.6923 15.9582 14.47 15.7246L10.3578 11.6031L10.3535 11.6063C9.3465 12.3531 8.12547 12.7536 6.87262 12.7482C3.61525 12.7293 0.98061 10.0863 0.966532 6.8233C0.957341 5.26194 1.57191 3.76174 2.67332 2.65691C3.77474 1.55208 5.27151 0.934402 6.8302 0.941466C10.0873 0.960311 12.7217 3.60309 12.7358 6.86579C12.7413 8.11571 12.346 9.33438 11.6082 10.3424ZM2.14359 6.82775C2.15503 9.438 4.26271 11.5522 6.86846 11.5672C8.11526 11.5724 9.31238 11.0781 10.1933 10.1943C11.0743 9.31048 11.566 8.11056 11.559 6.86163C11.5475 4.25138 9.43985 2.13719 6.8341 2.12217C5.58731 2.11699 4.39019 2.61131 3.50922 3.49511C2.62825 4.3789 2.13656 5.57882 2.14359 6.82775Z" fill="#ACB4BE"/>
</svg>
